/* XPM */
static char *result[] = {
/* columns rows colors chars-per-pixel */
"64 64 20 1 ",
"  c #181328",
". c #C0CBDC",
"X c #3A4466",
"o c #262B44",
"O c black",
"+ c #222E32",
"@ c #424D52",
"# c #007EAD",
"$ c #4DC6F4",
"% c #A8E3F9",
"& c white",
"* c #5A6988",
"= c #687377",
"- c #550000",
"; c #A60000",
": c #8B9BB4",
"> c #DD3A3A",
", c #8D979A",
"< c #556064",
"1 c #E9E5E1",
/* pixels */
"                                                                ",
"   .         X                              o                   ",
"                           OOOOOOOOOO                           ",
"                          O+@@@@@@@@+O                          ",
"                         O++#$%&&%$#++O                         ",
"                  *     OO++@@@@@@@@++OO  .                     ",
"                       O+@O+@#$%%$#@+O@+O                       ",
"                      O+@=O++@@@@@@++O=@+O                      ",
"                     O+@=O=O+@#%%#@+O=O=@+O                     ",
"                    O+@=O===O+@@@@+O===O=@+O                    ",
"                   O+@=O====O+#$$#+O====O=@+O                   ",
"                  O+@=O==OO==O+@@+O==OO==O=@+O                  ",
"                  O+=O==O--O==O$$O==O--O==O=+O                  ",
"                  O@O==O-;;;O=O@@O=O;;;-O==O@O              o   ",
" :                OO@@O-;;;>O=O@@O=O>;;;-O@@OO                  ",
"                  O@@O-;;;>O===OO===O>;;;-O@@O     X            ",
"   X              O@@O-;;>O==OOOOOO==O>;;-O@@O                  ",
"                  O@@@O;>O=OO@@@@@@OO=O>;O@@@O                  ",
"                   O@@@OO=O@@,,,,,,@@O=OO@@@O                   ",
"                    O@@@=O@=,,,,,,,,=@O=@@@O                    ",
"                     O@@O@===,,,,,,===@O@@O                     ",
"                      OO@====,,,,,,====@OO                      ",
"                      O@@====,,,,,,====@@O          :           ",
"                      O@@====++++++====@@O                o     ",
"                      O@@==++@@@@@@++==@@O                      ",
"                      O@@=+@@<<<<<<@@+=@@O                      ",
"                   *  O@@+@@<<<<<<<<@@+@@O    :                 ",
"                      O@@+@<<<<<<<<<<@+@@O       X              ",
"                      O@+@@<<<<,,<<<<@@+@O                      ",
"                      O@+@<<<<,++,<<<<@+@O                      ",
"                      O@+<,,,,++++,,,,<+@O                      ",
"           .    o     O@++++++++++++++++@O                      ",
"                     O@@+@<<<<++++<<<<@+@@O                     ",
"                     O@@+@@<<<<++<<<<@@+@@O                     ",
"                     O@@=+@<<<<<<<<<<@+=@@O                     ",
"                    O@@@=+@@<<<<<<<<@@+=@@@O                    ",
"                    O@@@==+@@<<<<<<@@+==@@@O                 *  ",
"                    O@@@===++@@@@@@++===@@@O1                   ",
"                   O@@@@=====++++++=====@@@@O              o    ",
"                   O@@@@=====,,,,,,=====@@@@O                   ",
"                  OO@@@@=====,,,,,,=====@@@@OOo                 ",
"                  O@@@@@=====,,,,,,=====@@@@@O                  ",
"                o O@@OOOOO===,,,,,,===OOOOO@@O     *            ",
"                  O@O-;;;>O==,,,,,,==O>;;;-O@O                  ",
"                  O@O-;;;>O=,,,,,,,,=O>;;;-O@O                  ",
"  o               O@O-;;;>O=,,OOOO,,=O>;;;-O@O                  ",
"                  O@O-;;;>O=,O    O,=O>;;;-O@O                  ",
"                  O@,O;;;>O,,O    O,,O>;;;O,@O                  ",
"                   OOO-;;>OOOO    OOOO>;;-OOO                   ",
"                   O@O-;;>O@@O    O@@O>;;-O@O        X          ",
"                    O=O;;>O=,O    O,=O>;;O=O               *    ",
"                    O=O-;>O=,O    O,=O>;-O=O                    ",
"                     O=O;>O=,O    O,=O>;O=O                     ",
"                     O=O;>O=,O    O,=O>;O=O                     ",
"           :          O=O>O=,O    O,=O>O=O                      ",
"                      O==OO=,O    O,=OO==O             o        ",
"                       O====,O    O,====O                   o   ",
"                       O====,O    O,====O                       ",
"                        O===,O    O,===O                        ",
"                        O===,O    O,===O                     *  ",
"                         O==,O    O,==O                         ",
"                         O,,,O    O,,,O                         ",
"                          OOOO    OOOO                          ",
"                :                                               "
};
