/* XPM */
static char *result[] = {
/* columns rows colors chars-per-pixel */
"64 64 19 1 ",
"  c #181328",
". c #C0CBDC",
"X c #3A4466",
"o c #262B44",
"O c #5A6988",
"+ c #8B9BB4",
"@ c black",
"# c #424D52",
"$ c #222E32",
"% c #8D979A",
"& c #687377",
"* c #550000",
"= c #A60000",
"- c #DD3A3A",
"; c #556064",
": c #007EAD",
"> c #4DC6F4",
", c #A8E3F9",
"< c white",
/* pixels */
"                                                                ",
"   .         X                              o                   ",
"                                                                ",
"                                                                ",
"                                                                ",
"                  O                   X   .                     ",
"                                                                ",
"                                                                ",
"                                                                ",
"                                                                ",
"                                                                ",
"                                             +                  ",
"                                 O                              ",
"                        +           o                       o   ",
" +                                                              ",
"                                o                  X            ",
"   X                                                            ",
"                                                                ",
"                                                                ",
"               @@@@@@@@                      @@@@@@@            ",
"             @@#######@@@                   @###@#$$@           ",
"           @@#@%@@@@#####@@@               @#####@&#$@          ",
"         @@&&@@@****@#######@@@           @###@@#&@&#$@         ",
"       @@&&@@**=====@##########@@@@@@@@@@@###@**@&&@&#$@  o     ",
"     @@&&@@*========@####################@##@===*@&&@&#$@       ",
"   @@&&&@===========@&&&&&&&&$$$$$$#######@&@-===*@&&@&#$@      ",
" @@&&&&@------------@&&&&&&$$##$;##$$&&&&&#@&@-===*@&&@&#@@     ",
"@%&&&&&@@@@@@@@@@@@@&&&&&&$###;$%;###$&&&&&#@&@-==*@&&&@@$$@    ",
"@%&&&&&&&&&&&#@%&&&&&&&&&$##;;;$%;;;##$&&&&&#@&@-=@&&&@$$$$$@   ",
"@%%%%%%%%%%%%#@%%%%&&&&&&$#;;;;$%;;;;#$&&&&%#@&&@@&&@@$$##:#@   ",
"@@@@@@@@@@@@@@@@@%%%%%%%$#;;;;;$%;;;;;#$%%%%%#@&&&&@$$##:#>#@   ",
"           .    o@%%%%%%$#;;;;$$$%;;;;#$%%%%%#@&@@@$:#:#>#,#@   ",
"                 @%%%%%%$#;;;$$$$$%;;;#$%%%%%#@@##>#>#,#,#<#@   ",
"                 @%%%%%%$#;;;$$$$$%;;;#$%%%%%#@@##>#>#,#,#<#@   ",
"                 @%%%%%%$#;;;;$$$%;;;;#$%%%%%#@&@@@$:#:#>#,#@   ",
"@@@@@@@@@@@@@@@@@%%%%%%%$#;;;;;$%;;;;;#$%%%%%#@&&&&@$$##:#>#@   ",
"@%%%%%%%%%%%%#@%%%%&&&&&&$#;;;;$%;;;;#$&&&&%#@&&@@&&@@$$##:#@O  ",
"@%&&&&&&&&&&&#@%&&&&&&&&&$##;;;$%;;;##$&&&&&#@&@-=@&&&@$$$$$@   ",
"@%&&&&&@@@@@@@@@@@@@&&&&&&$###;$%;###$&&&&&#@&@-==*@&&&@@$$@    ",
" @@&&&&@------------@&&&&&&$$##$;##$$&&&&&#@&@-===*@&&@&#@@     ",
"   @@&&&@===========@&&&&&&&&$$$$$$#######@&@-===*@&&@&#$@      ",
"     @@&&@@*========@####################@##@===*@&&@&#$@       ",
"       @@&&@@**=====@##########@@@@@@@@@@@###@**@&&@&#$@        ",
"         @@&&@@@****@#######@@@           @###@@#&@&#$@         ",
"           @@#@%@@@@#####@@@               @#####@&#$@          ",
"  o          @@#######@@@                   @###@#$$@           ",
"               @@@@@@@@                      @@@@@@@            ",
"                                  O                             ",
"                                                                ",
"                                                     X          ",
"                                                           O    ",
"                             O                                  ",
"                                                                ",
"                                                                ",
"           +                          o                         ",
"                                                       o        ",
"                                                            o   ",
"                                                                ",
"                                                                ",
"                                                             O  ",
"                                                                ",
"                                                                ",
"                                                                ",
"                +                                               "
};
