/* XPM */
static char *result[] = {
/* columns rows colors chars-per-pixel */
"64 64 20 1 ",
"  c #181328",
". c #C0CBDC",
"X c #3A4466",
"o c black",
"O c #262B44",
"+ c #8D979A",
"@ c #687377",
"# c #5A6988",
"$ c #DD3A3A",
"% c #A60000",
"& c #8B9BB4",
"* c #550000",
"= c #424D52",
"- c #222E32",
"; c #556064",
": c #E9E5E1",
"> c #4DC6F4",
", c #007EAD",
"< c #A8E3F9",
"1 c white",
/* pixels */
"                                                                ",
"   .         X            oooo    oooo      O                   ",
"                         o+++o    o+++o                         ",
"                         o@@+o    o+@@o                         ",
"                        o@@@+o    o+@@@o                        ",
"                  #     o@@@+o    o+@@@o  .                     ",
"                       o@@@@+o    o+@@@@o                       ",
"                       o@@@@+o    o+@@@@o                       ",
"                      o@@oo@+o    o+@oo@@o                      ",
"                      o@o$o@+o    o+@o$o@o                      ",
"                     o@o%$o@+o    o+@o$%o@o                     ",
"                     o@o%$o@+o    o+@o$%o@o  &                  ",
"                    o@o*%$o@+o   #o+@o$%*o@o                    ",
"                    o@o%%$o@+o    o+@o$%%o@o                O   ",
" &                 o=o*%%$o==o    o==o$%%*o=o                   ",
"                   ooo*%%$oooo  O oooo$%%*ooo      X            ",
"   X              o=+o%%%$o++o    o++o$%%%o+=o                  ",
"                  o=o*%%%$o@+o    o+@o$%%%*o=o                  ",
"                  o=o*%%%$o@++oooo++@o$%%%*o=o                  ",
"                  o=o*%%%$o@++++++++@o$%%%*o=o                  ",
"                  o=o*%%%$o@@++++++@@o$%%%*o=o                  ",
"                  o==ooooo@@@++++++@@@ooooo==o                  ",
"                  o=====@@@@@++++++@@@@@=====o      &           ",
"                  oo====@@@@@++++++@@@@@====oo            O     ",
"                   o====@@@@@++++++@@@@@====o                   ",
"                   o====@@@@@------@@@@@====o                   ",
"                   #o===@@@--======--@@@===o  &                 ",
"                    o===@@-==;;;;;;==-@@===o     X              ",
"                    o===@-==;;;;;;;;==-@===o                    ",
"                     o==@-=;;;;;;;;;;=-@==o                     ",
"                     o==-==;;;;--;;;;==-==o                     ",
"           .    O    o==-=;;;;----;;;;=-==o                     ",
"                      o=----------------=o                      ",
"                      o=-;++++----++++;-=o                      ",
"                      o=-=;;;;+--+;;;;=-=o                      ",
"                      o=-==;;;;++;;;;==-=o                      ",
"                      o==-=;;;;;;;;;;=-==o                   #  ",
"                      o==-==;;;;;;;;==-==o  :                   ",
"                      o==@-==;;;;;;==-@==o                 O    ",
"                      o==@@--======--@@==o                      ",
"                      o==@@@@------@@@@==o    O                 ",
"                      o==@@@@++++++@@@@==o                      ",
"                O     oo=@@@@++++++@@@@=oo         #            ",
"                  #  o==o=@@@++++++@@@=o==o                     ",
"                    o===@o=@++++++++@=o@===o                    ",
"  O                o===oo@o==++++++==o@oo===o                   ",
"                  o===o%$o@oo======oo@o$%o===o                  ",
"                  o==o*%%$o@@oooooo@@o$%%*o==o                  ",
"                  o==o*%%%$o@@@oo@@@o$%%%*o==o                  ",
"                  oo==o*%%%$o@o==o@o$%%%*o==oo       X          ",
"                  o=o@@o*%%%o@o==o@o%%%*o@@o=o             #    ",
"                  o-@o@@o**o@@o>>o@@o**o@@o@-o                  ",
"                  o-=@o@@oo@@o-==-o@@oo@@o@=-o                  ",
"                   o-=@o@@@@o-,>>,-o@@@@o@=-o                   ",
"           &        o-=@o@@@o-====-o@@@o@=-o                    ",
"                     o-=@o@o-=,<<,=-o@o@=-o            O        ",
"                      o-=@o--======--o@=-o                  O   ",
"                       o-=o-=,><<>,=-o=-o                       ",
"                        oo--========--oo                        ",
"                         o--,><11<>,--o                      #  ",
"                          o-========-o                          ",
"                           oooooooooo                           ",
"                                                                ",
"                &                                               "
};
