/* XPM */
static char *_372bb1dc599450ec50c1071f40aeb371DxiCb75pUafmrIt[] = {
/* columns rows colors chars-per-pixel */
"64 64 19 1 ",
"  c #181328",
". c #C0CBDC",
"X c #3A4466",
"o c #14A02E",
"O c #285CC4",
"+ c #262B44",
"@ c #1A7A3E",
"# c #249FDE",
"$ c #24523B",
"% c #B9BFFB",
"& c #403353",
"* c #477D85",
"= c #E3E6FF",
"- c #588DBE",
"; c #8B9BB4",
": c #6D758D",
"> c #423934",
", c #3B1725",
"< c #5A6988",
/* pixels */
"                                                                ",
"   .         X            oooooooooooO      +                   ",
"                    ooooooooooooo@@@@OOOOOOO                    ",
"                    ooooooooooooo@@@@OOOOOOO                    ",
"                  oooooooo@@o@@@@@@@#OOOOOOOOO                  ",
"               oooooooooooo@@@@@@@@@####OOOOOOOOO               ",
"              oooooooooo@@@@@@@$$@@@#####OOOOOOOOO              ",
"             ooo@@oo@@@@@@@$$$$$$$$$##OO####OOOOOOO             ",
"             ooo@@oo@@@@@@@$$$$$$$$$##OO####OOOOOOO             ",
"          oooooo@@@@@@$$@@$$$%%%%$$###OOO####OOOOOO&&&          ",
"         ooooo@@@@@$$$%%$$$$%%%$$$$#####O***#OOOOOOOO&&         ",
"         %ooo@@@@@$%%%%$$$$%====%#######--OO#OOOOOOOO&&         ",
"         %ooo@@@@@$%%%%$$$$%====%#######--OO#OOOOOOOO&&         ",
"       ======@@$$$%===%$%%=======#####===-OOOOOOOOOOO&&%%   +   ",
" ;    =====%%@$%%%===============%%#====%#OOOOOOOOO&&O&%%-      ",
"     =====%@@@$============%%%%=%###==%%##%%%Oo@@@@OO&O%%--     ",
"   X =====%===============%##############%%%ooooo@@@@&%----     ",
"     =====%===============%##############%%%ooooo@@@@&%----     ",
"    :=========%===========%%%###########%%==ooooo@@@@@-----*    ",
"    O=========%============%##########====oooo@oo@@@@@>>>--*    ",
"  OO##%%%%=====%%%%#%%====###########oooooooooo@@@@@@@>----***  ",
"  OO##%%%%=====%%%%#%%====###########oooooooooo@@@@@@@>----***  ",
"  OO##########%%####%%%%%%###########oooooooooo@@@@@@%%----***  ",
"  OO#####@@%%%########%%%%%###########oooo@@@o@@@$$%%-----****  ",
"  OO###@@@o>>#########################oo@ooo@@@@@@@$$--*******  ",
"  OO###@@@o>>#########################oo@ooo@@@@@@@$$--*******  ",
" OOOO##>>o>%%=%%############=#########@@@o@@@@@@@@%-------**&&& ",
" OOOO####>%====############%##########oo@@@@@@$@@%%%%-----&&&&& ",
" OOOOO###-%###############=%#########%##o@$$@@$$$----->>>>&&&&& ",
" OOOOOO##-%####################%%###%####@@@$$$$$$---O>>>>&&&&& ",
" OOOOOO##-%####################%%###%####@@@$$$$$$---O>>>>&&&&& ",
" OOOOO####%%%################%%#####%%####@@$$$$$>>---O&&&&&&&& ",
" OOOO######===############%##%%==####=%%####@@$$>>>>>>O&&&&&&&& ",
" OOOO##==###############%%##%====%%#====##OO@$$$>>>>>>&&&&&&&&& ",
" OOOO##==###############%%##%====%%#====##OO@$$$>>>>>>&&&&&&&&& ",
" OOOO#-===%###%%%%#####%##%===========%%#OOOO$>>>>>>>>O&&&&&&&& ",
" OOOO#-====%%%=#######%=%%============%%OOOO#O$$>>>OO&&&&&&&&&& ",
" OOOOO#--========%%#%%================---OOOOOOOOOO&&O&&&&&&&&& ",
"  OOOOO##-====-=================-===-----OOOOOOOOO&OO-&&&&&&&&  ",
"  OOOOO##-====-=================-===-----OOOOOOOOO&OO-&&&&&&&&  ",
"  OOOOOOOO-----===%=========-==----------OOOOOOO&O&---&&&&&&&&  ",
"  OOOOOOOOO--O-----========-#OO---------$OOOOO&&O----**&&&&&&&  ",
"  OOOOOOOOOOOO@>>>----==-----OOOO-----$$$$$$-&-------****&&&&&  ",
"  OOOOOOOOOOOO@>>>----==-----OOOO-----$$$$$$-&-------****&&&&&  ",
"    OOOOOOOOO>$$$>O----------OOOO$$$$$$$$$--,-----*****&&&&&    ",
"  + OOOOOOOOOO>>>OO-----OOO--OOO$$$$$$$$$-$$------****&&&&&&    ",
"     OOOOOOOOOOOO---OOOOOOOOOOOO$$$$$>>>>----******&&&&&&&&     ",
"     OOOOOOOOOOOO---OOOOOOOOOOOO$$$$$>>>>----******&&&&&&&&     ",
"     OOOOOOOOOOOOO----OOOOOOOOOO$$$$>>-->,------*,&&&&&&&&&     ",
"      OOOOOOOOOOOOO-----OO$$$OOO$$$$>-,,>-----*******&&&&&      ",
"       OOOOOOOOOOOOOOOOO$$$$$$$O&$$$>-----**-*****,,,&&&&  <    ",
"         &O&&OOOOOOOOOO$$$$$$$$$&$$$------********,,,,,         ",
"         &O&&OOOOOOOOOO$$$$$$$$$&$$$------********,,,,,         ",
"         &&OO&O&&O&O,,$$$$$>>>>$$,,$----*********,,,,,,         ",
"          &&&O&OO&,$$$,$$$>,>,,$,$$,$>*******,,,,,,,,,          ",
"             ,,,,,$,,,$,>>,>,>>,$,,,,,,,,,,,,,,,,,,    +        ",
"             ,,,,,$,,,$,>>,>,>>,$,,,,,,,,,,,,,,,,,,         +   ",
"              ,,,,,,,,,,,,,>,>>,,,,,,,,,,,,,,,,,,,              ",
"               ,,,,,,,,,,,,,,,,,,,,,,,,,,,,,,,,,,               ",
"                  ,,,,,,,,,,,,,,,,,,,,,,,,,,,,               <  ",
"                    ,,,,,,,,,,,,,,,,,,,,,,,,                    ",
"                    ,,,,,,,,,,,,,,,,,,,,,,,,                    ",
"                          ,,,,,,,,,,,,                          ",
"                ;                                               "
};
