/* XPM */
static char *_c52656dad6b4c97ceed53720634335b4kCamyPPENzc7sMe[] = {
/* columns rows colors chars-per-pixel */
"64 64 97 2 ",
"   c #08141E",
".  c #0A1521",
"X  c #0C1824",
"o  c #141325",
"O  c #131A25",
"+  c #171428",
"@  c #181328",
"#  c #161B29",
"$  c #1C192D",
"%  c #1E1E32",
"&  c #211E2F",
"*  c #201F33",
"=  c #0E273B",
"-  c #0F2A3F",
";  c #102A3F",
":  c #222133",
">  c #292737",
",  c #222338",
"<  c #27293D",
"1  c #2A2C3D",
"2  c #0F2B40",
"3  c #122B40",
"4  c #1B2E43",
"5  c #1E374D",
"6  c #1F384E",
"7  c #2E3142",
"8  c #21394F",
"9  c #343443",
"0  c #373846",
"q  c #393D4D",
"w  c #273A50",
"e  c #3E4455",
"r  c #414758",
"t  c #4A475D",
"y  c #4E495F",
"u  c #504A5E",
"i  c #534B60",
"p  c #584E61",
"a  c #594F62",
"s  c #5A4F62",
"d  c #575061",
"f  c #545864",
"g  c #7B5F6F",
"h  c #7C5F6F",
"j  c #7E6070",
"k  c #806170",
"l  c #816271",
"z  c #836472",
"x  c #846472",
"c  c #866974",
"v  c #8C6F78",
"b  c #906F74",
"n  c #927175",
"m  c #947175",
"M  c #957375",
"N  c #947276",
"B  c #957276",
"V  c #977376",
"C  c #977477",
"Z  c #987477",
"A  c #997577",
"S  c #9B7778",
"D  c #9B7779",
"F  c #9C7878",
"G  c #9C7978",
"H  c #9D7979",
"J  c #9F7B79",
"K  c #A07D7A",
"L  c #A58280",
"P  c #A98783",
"I  c #BC9C87",
"U  c #BE9E88",
"Y  c #BF9E88",
"T  c #BF9F88",
"R  c #C0A089",
"E  c #C1A189",
"W  c #C3A38A",
"Q  c #C3A48A",
"!  c #C4A48B",
"~  c #C4A48D",
"^  c #C5A58D",
"/  c #C6A68D",
"(  c #C7A78E",
")  c #C7A88E",
"_  c #C8A88F",
"`  c #C9AA91",
"'  c #EDCDB6",
"]  c #F0D0B7",
"[  c #F1D1B8",
"{  c #F2D2B8",
"}  c #F2D2BA",
"|  c #F4D4BB",
" . c #F5D5BB",
".. c #F6D6BD",
"X. c #F7D7BD",
"o. c #F7D7BE",
"O. c #F8D8BE",
/* pixels */
"@ 0 f f q & & o @ @ @ & & * $ @ @ @ @ @ @ + @ @ @ o @ @ + @ @ @ @ @ @ @ @ @ @ @ @ @ @ @ $ $ @ @ @ @ @ @ @ @ o o o o o o o o @ o ",
"@ 9 y y 1 & & o @ @ @ @ & * $ @ + + @ o o o . o o o o o . X o . o @ @ @ @ @ @ @ @ @ o @ $ @ @ @ O o @ o @ @ @ @ @ @ @ o o o @ @ ",
"o > 1 e > & @ @ @ @ @ o $ $ @ @ + o . .                 . .   .     o o @ @ @ @ @ @ O & @ @ @ @ @ o o o o @ @ @ @ @ @ @ @ @ @ @ ",
"o O & & & @ @ @ @ @ @ @ @ @ @ @ + o .                   = =   .         @ @ @ @ & > 1 1 > @ @ @ @ @ o o @ @ @ @ @ @ @ @ o @ @ @ ",
"@ @ @ @ @ @ @ @ @ @ @ @ @ @ @ @ X .         . -     2 = 2 2 2 = = =   . @ $ % % : 9 y r 1 @ @ @ @ @ @ @ @ @ @ @ @ @ @ @ @ @ @ @ ",
"@ @ @ @ @ @ @ @ + @ @ @ @ @ + o             - 2     = = 2 2 = . . .     o $ % : : 9 u u 9 @ o @ @ @ @ @ @ @ @ @ @ @ o @ @ @ @ @ ",
"@ @ @ @ @ @ @ @ @ @ @ @ + + .         . = -                     .         . + % & > 0 9 : @ o @ @ @ @ @ @ @ @ @ @ @ @ @ @ @ @ o ",
"@ @ @ @ @ @ @ @ @ @ + + + .           = - -                               . . .   o O o o     . o o o o @ @ @ @ @ @ @ @ @ @ @ o ",
"@ @ @ @ @ @ + + @ @ @ @ o         = - - - .     . . . . . . . . . . . . . .     . . . .                 o o @ @ @ @ @ @ @ @ @ o ",
"@ @ @ @ @ @ @ + @ @ @ o         . - 2 2 = .     . = = = = - = = = = - - 2 =     = = = -                   o @ @ @ @ @ @ @ @ @ o ",
"@ @ @ @ @ @ @ + @ @ o o         = 2 2 - . . = 2 - 2 - - 2 2 2 2 - 2 - - 3 2 - 3 2 2 2 = - - ; - % .         o @ @ @ @ @ @ @ @ o ",
"@ @ @ @ @ @ @ o o o           = 2 - - - = 2 2 2 2 = 2 - - 2 2 2 - - - - 6 5 5 8 = 2 2 2 - - - 2 2 2 =         @ @ @ @ @ @ @ @ o ",
"@ @ @ @ @ @ @ o o           = 2 - - 2 6 w 6 2 2 2 = 2 2 2 2 - = 2 - 2 2 2 - 6 5 6 6 2 2 - - - - 2 2 2 2       @ @ @ @ & @ @ @ @ ",
"7 < * & @ @ + o           = 3 = - - 6 w 6 3 - 3 2 2 2 2 2 2 - 2 2 - 2 2 2 - 2 3 6 6 5 2 - 2 - 2 2 2 = 2 =     @ @ @ @ @ @ @ @ @ ",
"q q 7 @ + @ o       . - 2 - 3 - 3 6 6 2 - 2 3 3 w t y y u i u u t y t w 3 3 3 - 2 2 2 - - - - - 2 .         o o @ @ @ @ @ @ @ @ ",
"e 0 7 * + o         - - - - - 2 - 2 - 2 - - t y y y y y u M C u y y y y y t - 2 2 2 2 2 2 - 2 - 2 =         o @ @ @ @ @ @ @ @ @ ",
"7 7 % + + . . .   . - - - - - - - 3 4 y y y y y u u u y M C Z C y y y y y y y y 4 t t 4 3 2 2 - 2 =         . + + + @ @ @ @ @ o ",
"+ + .   . .       - - - - - 2 - 3 t y y y y y y u u y y u u i i y y y i y y y i i t i t t 6 - 2 2 2 =         . + @ @ @ @ @ @ @ ",
"o o           . - - - 3 - - - - t y w 4 y y y i x M V s u d i u x Z i i y y y y y y t i t t 2 2 2 2 2 2         . @ @ @ @ @ @ @ ",
"@ o           = - - - - 2 - 2 - 4 3 y t y i i b Z Z Z M C Z C B Z Z B B y y y i t i i t 4 4 2 - = 2 2 2 =       . o @ @ @ @ @ @ ",
"o .         . = - - - - 2 2 3 3 i t i i y y i i s M Z S Z Z Z Z Z Z Z F s Z D Z i i y y y 4 3 3 2 2 - - = .       . @ + @ @ @ @ ",
"o .   .     = 2 2 2 2 - 2 2 3 t y i k B i y k b V Z Z Z S S Z Z Z Z Z Z Z Z R D B k y y y t 8 3 - 2 2 - 2 -         @ @ @ @ @ @ ",
"o . . = . . 2 2 = 3 - 2 = 2 4 i i g v i s B Z Z Z G G G ! _ _ _ / K K Z C C Y / D Z i i y y t 4 - 2 2 - 2 -         o @ @ @ @ @ ",
".   . = = . 2 = - 2 - 3 3 = t t y i i i k Z Z Z G I E E _ } } | } / R F C D J Y Y D b i y i i t = 2 2 - - - =       o @ @ o @ @ ",
".     = 2 X = 2 2 2 2 2 = 2 i i y y y y b Z K Z R R ! ! ( ] ] ( R R R _ R K Z Z K Z B u s Z k i = - - - 2 2 2         @ @ @ @ @ ",
"o   . = 2 = 2 2 2 = 2 2 2 5 t t y y y y s C I H H H R ! ! ( ( ! ! ! / } ! R H Z Z Z B k i V B i 2 2 - 2 = 2 2         @ @ @ @ @ ",
".       2 2 - - - 2 - - 2 2 4 t y y y i D R Y K K / O.O.X...X.] } O...X.! ! | ` Z Z V x i i b i 5 2 2 - 2 2 2 2         @ @ @ @ ",
"o       = - 2 - - - - 2 2 2 i t y y i h D R Z Z / ] O.O.....] L L } X.X.! ! O.| I K Z B t t i t 2 2 2 2 = 2 2 2         @ @ @ @ ",
"o       = = - 2 2 8 2 = 2 4 i t y y i B Z Z D D ! ! ` | ' x t t t t c ' | _ _ } Y J D C y y y y t 3 3 3 2 2 2 %         o @ @ @ ",
"o       . - - 2 8 8 2 2 2 t t i y y s B Z Z D Y ! R | X.c s O .   O s x O.| R ! Y D C C y i y y t 3 3 5 2 2 2 2         o @ @ o ",
"+ o     . = 2 - 8 8 2 2 2 8 t u y i B Z Z D D R ! ( X.} y O         O u ] X._ ! Y J Z Z s B y y 2 2 2 5 5 2 2 2 % .     o @ @ @ ",
"@ o         - - 5 8 = 2 2 2 4 t i h B Z Z Z D R ! ] } L y O         O u K | ] _ ~ / Z Z B B y t 5 2 - 3 5 6 = 2 2 2     @ @ @ @ ",
"@ @ o       - - 5 8 3 = 2 2 y y u k u M S Z ! _ ! ] | P y O         O y P ] ] _ ! ! F V F V y u t 3 3 3 8 8 - - 2 -     @ @ @ @ ",
"@ @ o       - - 3 5 3 2 2 2 y y u u u M Z Z / | ! _ | | u #         # u | X.! ! R ! T F V V t y t 3 2 2 8 5 2 2 - -     o @ @ @ ",
"@ @ o       - - 2 5 5 3 - 3 4 t c u u M Z S ! ] | _ | O.v i @ @ O # s v O.| ! R T F B D b i y y y 3 2 2 8 = - - - -     O @ @ @ ",
"@ @ @ o     = - 2 2 5 2 3 t y y M i u V Z Z ! ! X.X._ | ] v s u u d v ' | _ ! ! H Z Z Z i u u u y 8 2 2 8 - - - - -       + @ @ ",
"@ @ @ o .     - = 2 - - - = t y h i i B G G Z Z ! W _ ] | X...P P | | | ] O.] ! C C K B y y i y y 8 - - - 2 - - - 2 =     O $ $ ",
"@ @ @ o       - 3 2 - 2 2 2 t y i y u B T E G Z G ! | X._ | ..} | X.| ( _ | ! K C F R D y y g i t 3 3 - - - - . . 2 = .     # $ ",
"@ @ @ @         - - - - 2 2 t t y u C Z G T ! G Z Z ! ! ! R R R ! / ( ! ! T Z Z J R Y M y d C u t 3 - - 2 2 = . . 2 = .     O o ",
"@ @ @ @ o       - - - 3 2 2 t 8 y u i n G E E G Z Z R ! ! R ! ~ ( } ] ( E G Z S R ~ M s i M C i 8 2 - - - - ;   . = =       o @ ",
"@ @ @ @         2 2 2 2 = 2 5 2 y y y t Z C R / K B V I R / ~ ' } } R E I F Z Z R M b u i C b i = 2 2 2 - - =   . 2       . + + ",
"@ @ @ o         = 2 2 2 2 2 2 = y y y y B k F R Y K V K ~ T Z K ( ! E G S S Z Z C s u u i h u y 2 2 2 = - =     . =       . @ @ ",
"@ @ o           . 2 = 2 2 2 2 2 y y y y g i h b V D V B Y F D D Z Z G G S G S Z v u u y y y y y 2 = 3 2 - =     .       . o @ @ ",
"@ @ @ o         . % 2 2 = 2 2 2 w y y y y y i i V B D D H V V Z Z Z T ! E Q C Z i y y y y y y 3 2 2 2 2 = .             o @ + @ ",
"@ @ @ o             2 2 = 2 8 2 2 2 t y y i s i i b i v B B B B Z S Z E I G S M h i y t t 3 6 3 2 2 = 2 =             o @ @ @ @ ",
"@ @ @               = 2 2 2 8 5 2 2 4 t i b B i i i i h B s i j M Z Z Z s n C k u u t 3 8 2 2 2 2 2 2 2             o o @ @ @ @ ",
"@ @ @ o               = 2 2 2 8 5 2 2 = t t h B v i y y y y y y y y y u u s u y u y ; 2 2 2 3 6 8 2 = 2           o @ @ @ @ @ @ ",
"@ @ @ o                 = 2 2 5 8 8 2 2 2 8 y i i y y i y y y y y y u h Z M h u y 8 - - = 3 6 8 2 2 2 =         o o @ @ @ @ @ @ ",
"@ @ @ @       = % .       = 2 2 5 5 5 2 2 2 - - t y y y t y y y t t t t i t t t 5 2 = 2 2 5 5 5 = 2 = .       o @ @ @ @ @ @ @ @ ",
"@ @ + @         2 2 2       2 = 2 5 5 6 2 2 2 - 2 2 t y 3 t y y 3 4 4 i t t t 4 2 2 2 2 2 5 2 = 2 2 2 2     . @ @ $ % % % @ @ @ ",
"+ @ + + o         = 2 2       = - - 2 - - - - - - - - - - - - - 2 2 t t t 8 2 2 2 = 2 2 2 2 2 2 2 2         . + @ % < 7 * @ @ @ ",
"@ @ @ +             2 2 2 2 2 . - - - - 2 - 2 - - - - - - - - 2 3 2 3 3 3 2 2 2 2 2 = 2 2 2 2 2 =   . =   . . @ @ % , < * @ @ @ ",
"o @ o @ o             = 2 - 2 - 2 - - - - 2 - = - - - - - - - 5 8 8 8 8 5 2 2 = 2 2 2 2 2 = = 2   . 2 2     o @ @ @ * * $ @ @ o ",
"o @ o o o o             2 2 = - - - - 2 - - - = - - - - - - - - 8 5 5 2 2 2 2 2 2 = 2 2 = . . . 2 2 2 =     @ @ + @ @ @ @ @ o o ",
"o @ @ @ @ @ o o     .         = = = 2 - - - = = - = - - - - - - 2 2 2 2 2 = = 2 2 2 = =   . = 2 2 2 =     . @ @ + + @ + @ + o o ",
"o @ @ @ @ @ @ @ . o .               - - = .     . . - - - - - - = 2 2 % 2 2 . 2 = 2 = . . = 2 % =           @ @ @ @ @ @ + + o o ",
"o @ @ @ @ @ @ @ @ % $ o .                       . . . .                 . . = = =             =           o @ @ @ @ + @ $ $ + . ",
"o @ @ @ @ @ @ @ @ @ @ + o o o .                 - - - - = =             = 2                             o @ @ @ @ @ + $ : * $ . ",
"  @ @ @ @ @ @ @ @ @ @ + @ @ @ o . o o .           = = = =                     .     o         o   o . o o @ @ @ @ @ @ * 4 < * + ",
"o @ @ o @ @ @ @ @ @ @ @ @ @ @ @ + o @ @ o                         . . o o o . o o o o o o o o o o o @ + @ @ @ @ @ @ @ * < 7 : + ",
"o @ @ @ @ @ @ @ @ @ @ @ @ @ @ + @ @ @ @ @ o o                   o @ @ o o @ @ @ @ @ @ @ @ @ @ @ @ @ @ @ @ @ @ @ @ @ @ @ * * $ @ ",
"@ @ @ @ @ @ @ @ @ @ @ @ @ @ @ $ 7 , $ @ @ @ + o o o o o o o o @ @ @ @ @ @ @ @ @ @ @ o @ o @ @ @ @ @ @ @ @ @ @ @ + @ @ @ @ $ @ @ ",
"@ @ @ o @ @ @ @ @ @ @ @ @ @ $ 7 q q * @ @ @ @ @ + + o + @ @ @ @ @ @ @ @ @ @ @ @ @ @ o @ @ @ @ @ @ @ @ @ @ @ @ @ @ @ @ @ @ @ @ o ",
"@ @ @ @ @ @ @ @ @ @ @ @ @ @ $ 7 t q 7 @ o @ @ @ @ + + + @ @ @ o @ @ @ @ @ @ @ @ @ @ @ @ @ @ @ @ @ @ @ @ @ @ @ @ @ @ @ @ @ o o o "
};
