/* XPM */
static char *result[] = {
/* columns rows colors chars-per-pixel */
"64 64 31 1 ",
"  c #181328",
". c #C0CBDC",
"X c #3A4466",
"o c #262B44",
"O c #5A6988",
"+ c #660400",
"@ c #5A2A15",
"# c #8B9BB4",
"$ c #EFC692",
"% c #D89C53",
"& c #963306",
"* c #C68638",
"= c #F0DEB5",
"- c #F9EED8",
"; c #F0B15D",
": c #FFB222",
"> c #C6552E",
", c #FADCAA",
"< c #FBCA30",
"1 c #F45C19",
"2 c #CC8B2D",
"3 c #BF9857",
"4 c #A82D01",
"5 c #CC4D20",
"6 c #FC9D44",
"7 c #FFA90A",
"8 c #E4852C",
"9 c #FFF6DC",
"0 c #B44D28",
"q c #EF9C10",
"w c #E9E5E1",
/* pixels */
"                                                                ",
"   .         X                              o                   ",
"                                                                ",
"                                                                ",
"                                                                ",
"                  O                   X   .                     ",
"                                                                ",
"                                                                ",
"                                                                ",
"                                                                ",
"                                                                ",
"                              ++@@@@         #                  ",
"                              ++@@@@                            ",
"                        #   ++$$$$%%&&@@                    o   ",
" #                          ++$$$$%%&&@@                        ",
"                            ++**$$==$$%%&&@@       X            ",
"   X                        ++**$$==$$%%&&@@                    ",
"                            ++++&&**$$==--$$&&@@                ",
"                            ++++&&**$$==--$$&&@@                ",
"                          ++;;::>>++&&**$$==$$%%&&@@            ",
"                          ++;;::>>++&&**$$==$$%%&&@@            ",
"                        ++,,<<,,,,;;>>++&&**$$$$$$%%@@          ",
"                        ++,,<<,,,,;;>>++&&**$$$$$$%%@@          ",
"                        ++1111;;,,::,,;;>>++&&**;;2233++  o     ",
"                        ++1111;;,,::,,;;>>++&&**;;2233++        ",
"                      ++44445511<<<<,,,,<<;;>>++&&3333++        ",
"                   O  ++44445511<<<<,,,,<<;;>>++&&3333++        ",
"                      ++4444444466776611554488;;>>++++          ",
"                      ++4444444466776611554488;;>>++++          ",
"                    ++5511555555,,<<554444444499;;++            ",
"                    ++5511555555,,<<554444444499;;++            ",
"           .    o   008811115566<<,,,,55111166,,++              ",
"                    008811115566<<,,,,55111166,,++              ",
"                  ++88<<66,,qq,,,,<<66::<<66++++                ",
"                  ++88<<66,,qq,,,,<<66::<<66++++                ",
"                  00<<::,,,,::<<999999,,00++                    ",
"                  00<<::,,,,::<<999999,,00++                 O  ",
"                ++88115544;;<<::<<,,00++    w                   ",
"                ++88115544;;<<::<<,,00++                   o    ",
"              ++::115544444499,,++++                            ",
"              ++::115544444499,,++++          o                 ",
"            ++,,,,4444445511++++                                ",
"            ++,,,,4444445511++++                   O            ",
"          ++<<<<::::1111++++ O                                  ",
"          ++<<<<::::1111++++               #                    ",
"  o       ++,,9999,,++++                                        ",
"          ++,,9999,,++++                                        ",
"          ++,,,,++++              O                             ",
"          ++,,,,++++                                            ",
"            ++++                                     X          ",
"            ++++                                           O    ",
"                             O                                  ",
"                                                                ",
"                                                                ",
"           #                          o                         ",
"                                                       o        ",
"                                                            o   ",
"                                                                ",
"                                                                ",
"                                                             O  ",
"                                                                ",
"                                                                ",
"                                                                ",
"                #                                               "
};
