/* XPM */
static char *_dd86254d1cc4eafe4e54832b12725dexZ3ShkP5VgIufI57[] = {
/* columns rows colors chars-per-pixel */
"64 64 127 2 ",
"   c #17172D",
".  c #181328",
"X  c #17182F",
"o  c #1A192E",
"O  c #171A31",
"+  c #1B1C32",
"@  c #1A2136",
"#  c #17223C",
"$  c #1C243A",
"%  c #1D293F",
"&  c #21253B",
"*  c #393939",
"=  c #172641",
"-  c #1A2640",
";  c #1C2B43",
":  c #192E49",
">  c #153141",
",  c #1E3147",
"<  c #1E324C",
"1  c #0A3A5E",
"2  c #1D3450",
"3  c #1E3B57",
"4  c #1C3B59",
"5  c #232D43",
"6  c #253246",
"7  c #283247",
"8  c #24344A",
"9  c #2B354B",
"0  c #25384C",
"q  c #2A3C4E",
"w  c #243B52",
"e  c #293D55",
"r  c #243F59",
"t  c #0A3B60",
"y  c #1D4358",
"u  c #2F4057",
"i  c #25425A",
"p  c #2A445C",
"a  c #304554",
"s  c #384D5A",
"d  c #0B4263",
"f  c #1C4365",
"g  c #0E4872",
"h  c #224A65",
"j  c #2E4C64",
"k  c #3A4466",
"l  c #304E66",
"z  c #305067",
"x  c #325269",
"c  c #39566B",
"v  c #345C6F",
"b  c #3C586E",
"n  c #355A71",
"m  c #3F5A70",
"M  c #3B6474",
"N  c #3E6976",
"B  c #464A4B",
"V  c #4B4B4B",
"C  c #4C5155",
"Z  c #42565F",
"A  c #525252",
"S  c #525658",
"D  c #575A5C",
"F  c #595959",
"G  c #405661",
"H  c #405D73",
"J  c #5F6263",
"K  c #46637E",
"L  c #426B7C",
"P  c #45727C",
"I  c #4B767E",
"U  c gray38",
"Y  c #747474",
"T  c gray47",
"R  c #0A5D92",
"E  c #3B6283",
"W  c #376985",
"Q  c #3D6C84",
"!  c #1973A6",
"~  c #2774A0",
"^  c #576B8A",
"/  c #5A6A89",
"(  c #42768C",
")  c #4B7B94",
"_  c #3389A6",
"`  c #2480B5",
"'  c #308ABC",
"]  c #6A8793",
"[  c #43A7BF",
"{  c #349FCC",
"}  c #3DB6E4",
"|  c #3EBBEA",
" . c #42A4C2",
".. c #7FAEC7",
"X. c #49B8E7",
"o. c #49B8E7",
"O. c #5DCDD9",
"+. c #5DCDD9",
"@. c #4BC6E8",
"#. c #4BC6E8",
"$. c #5FC3E1",
"%. c #5FC3E1",
"&. c #68C3E1",
"*. c #68C3E1",
"=. c #60D5EE",
"-. c #60D5EE",
";. c #74DBEE",
":. c #7EFFFF",
">. c #808283",
",. c gray51",
"<. c #808384",
"1. c #828282",
"2. c #8398B4",
"3. c #8B9BB4",
"4. c #889CB5",
"5. c #83A1BB",
"6. c #A4A4A4",
"7. c #B9C8D9",
"8. c #8BEAFE",
"9. c #8BEAFE",
"0. c #93E8FF",
"q. c #93E8FF",
"w. c #82FEFE",
"e. c #88FFFF",
"r. c #ABFDFF",
"t. c #ABFDFF",
"y. c #C0CBDC",
/* pixels */
". . . . o @ @ @ $ % % % % & - & + + $ o o . . . . . . . . . . . . . . . . . . . . . . . . . . . . . . . . . . . . . . . . . . . ",
". .   7.@ ; 5 0 i i r r i E i i r 2 8 - o o . . . . . . . . . . . . . . . . . . . . . . & . . . . . . . . . . . . . . . . . . . ",
". . . + % _ _ _ [ [  . . . . . . . . .5 + o o . . . . . . . . . . . . . . . . . . . . . . . . . . . . . . . . . . . . . . . . . ",
".     + % _ _ _ [ [  . . . . . . . . .< + o o . . . . . . . . . . . . . . . . . . . . . . . . . . . . . . . . . . . . . . . . . ",
". . o + & _ _ _ [  . . . . . . . . . .2 + . o . . . . . . . . . . . . . . . . . . . . . . . . . . . . . . . . . . . . . . . . . ",
". . . o @ , , 0 p h h > > g g g g g g 2 # o o . . . . . . . . . . . . . . . 9 . . . y.. . . . . . . . . . . . . . . . . . . . . ",
". . . o o @ @ $ , i 4 > > g g g g g g 2 - o o o . . . . . . . . . . . . . . . . . . . . . . . . . . . . . . . . . . . . . . . . ",
". . . . + @ @ $ , y r > > g g g g g g r - o o o . . . . . . . . . . . . . . . . . . . . . . . . . . . . . . . . . . . . . . . . ",
". . . . . o O + % 4 4 ` ` ` ` ` ` ` ` h w + + O . . . . . . . . . . . . . . . . . . . . . . . . . . . . . . . . . . . . . . . . ",
". . . . . X X # : f f ` ` ` ` ` ` ! ` Q l 8 w + + . . . . . . . . . . . . . . . . . . . . . . . . . . . . . . . . . . . . . . . ",
". . . . . O O # g g g ' ' ` ` ` t.t.t.#.#.x l 8 & o o . . . . . . . . . . . . . . . . . . . . . . . . . . . . . . . . . . . . . ",
". . . . . O O # g g g ' ' ` ` ` t.t.t.#.#.x l 8 & o o . . . . . . . . . . . . . . . . . . 6.. . . . . . . . . . . . . . . . . . ",
". . . . . O O = g g g ' ' ` ` ` t.t.t.#.#.( ( l 7 + $ o . . . . . K . . . . . . . . . . . . . . . . . . . . . . . . . . . . . . ",
". . . .   O O = g g g ' ' o.o.o.t.t.t.t.t.#.#.#...9 9 $ o o . . . . . . 9 . . . . . . . . . . . . . . . . . . . . . . . . . . . ",
". 4.. .   O O # g g g ' ' o.o.o.t.t.t.t.t.#.#.#.( l l 9 & + + + . o + o o o + o . o . o . . . . . . . . . . . . . . . . . . . . ",
". . . .   O O # g g g ' ' o.o.o.t.t.t.t.t.#.#.#.( x x 8 & & + + 9 o + + o + o o o o o . . . . . . . . * . . . . . . . . . . . . ",
". . . k . X X # > > > ' ' { { { { { { t.t.t.t.t.#.#.#.c a 9 9 7 7 6 7 6 5 5 5 5 & & & + o o . . . . . . . . . . . . . . . . . . ",
". . . . . .   @ > > > ' ' { { { { { { t.t.t.t.t.#.#.#.) ( H H G b c c z z l j j s e e 7 & + + o . . . . . . . . . . . . . . . . ",
". . . . .     O > f f { { -.-.-.-.-.-.{ { q.q.q.9.q.q.q.q.q.q.q.q.q.q.+.+.*.*.*.%.%.*.l 9 5 5 5 & + o . o . . . . . . . . . . . ",
". . . . .   X + > h h { { -.-.-.-.-.-.{ { q.q.q.9.q.q.q.q.q.q.q.q.q.q.+.+.*.*.*.%.%.o.j e 5 5 & & + + o o . . . . . . . . . . . ",
". . . . . . X O > y f { { -.-.-.-.-.-.{ { q.q.q.9.q.q.q.q.q.q.q.q.q.q.+.+.%.*.*.%.%.%.Q n j l h 9 5 ; + O . . . . . . . . . . . ",
". . . . . X   @ > > % d d R R R R R R { { { { { t t t t t t t t t t t t t 1 1 1 %.%.%.%.%.%.%.%.! ! ! - O o . . . . . . . . . . ",
". . . . .     @ > > > d d R R R R R R { { { { { t t t t t t t t t t t t t 1 1 1 %.%.%.%.%.%.%.%.! ! ! - 2.. o . . . . . . . . . ",
". . . .       @ > > > d d R R R R R R { { { { { t t t t t t 1 1 t t t t t 1 1 t %.%.%.%.%.%.%.+.! ! ! - O . . . . . & . . . . . ",
". . . . . o o @ y y y y y y y y t t t t t t t 1 B V V F U ,.,.,.1.1.] ,.,.,.,.,.U U U F F C C C p , 6 @ o     . . . . . . . . . ",
". . . .   O O $ y y y y y y y y t 1 1 t 1 1 1 4 B V B F U 1.,.,.1.1.1.1.,.,.,.,.U U U F A A A S q 5 5 @ @ + + + . . o   . . . . ",
". . . . . + O % y y y ~ ~ t t t ,.,.,.,.,.,.,.,.,.,.,.,.1.1.1.1.T T T * * * * * U U U * * G ] s u a a 0 q 7 6 6 5 $ $ + o . . . ",
". . . .   O + % y y y ~ ~ t t t ,.,.,.,.,.,.,.,.,.,.,.,.1.1.1.1.T T T * * * * * U U U * * G G s a K q q q 6 8 6 - & $ + . . . . ",
". . . . . X + : y y y ~ ~ d t t ,.,.,.,.,.,.T T ,.,.1.1.1.1.1.1.T T T * * * * * U U U q * I I P N N N N M M M v j r w - + . o . ",
". . . .   @ @ < ~ ~ ~ ;.;.1 t t ,.,.,.6.6.6.6.6.6.6.6.6.6.6.6.6.V V V T Y Y Y Y V V V w.:.:.:.:.:.e.e.:.:.:.:.:.| } } 3 $ o o . ",
". . . . . @ @ w ~ ~ ~ ;.;.1 1 t ,.,.,.6.6.6.6.6.6.6.6.6.6.6.6.6.V V V T Y Y Y Y V V V :.:.:.:.:.:.:.:.:.:.:.:.:.| | | r - o o . ",
". . . .   @ @ 2 ~ ~ ~ ;.;.1 1 1 ,.,.,.6.6.6.6.6.6.6.6.6.6.6.6.6.V V V Y Y Y Y U V V V w.:.:.:.:.:.:.:.:.:.:.:.:.| | o.r $ o o . ",
". . . .   @ @ y ~ ~ ~ ;.;.t t t ,.,.,.6.6.6.6.6.6.6.6.6.6.6.6.6.V V V T T Y Y Y A V V e.e.w.w.:.:.e.e.:.:.:.:.:.} } } 0 $ o o . ",
". . . .   @ O % y y y ~ ~ t t t ,.,.,.,.,.,.,.,.,.,.,.,.<.,.<.<.T T T * * * * * U U U 9 * I I I L L N N M M M v z 0 i & + .   . ",
". . . . . o O % y y y ~ ~ t t t ,.,.,.,.,.,.,.,.,.,.,.,.,.,.1.1.T T T * * * * * U U U * * Z Z s a q q 0 q 6 6 6 ; $ $ @     . . ",
". . .     O O % y y y ~ ~ t t t ,.,.,.,.,.,.,.,.,.,.,.,.,.,.1.1.T T T * * * * * U U U * * G Z s a q q q 0 7 0 6 % $ $ @   . . . ",
". . . . .     % y y y y y y y y 1 1 1 1 1 1 1 1 V V B F F ,.,.1.1.1.,.,.T ,.,.,.U U U A A A A A q & 5 $ @ o & o o   o . . / . . ",
". . . .       # y y y y y y y y 1 1 t t t t t 1 V V V D D 1.1.1.1.1.1.T ,.,.,.,.U U U S A V A V p 8 8 $ o     . . . . . . . . . ",
". . . .       @ > > % d d R R R R R R { { { { { t t t t t t t t t t 1 1 1 1 1 1 %.%.%.%.*.%.%.%.! ! ! - @     . . . . 5 . . . . ",
". . . .       # > > % d d R R R R R R { { { { { t t t t t t t t t t 1 1 1 1 1 1 %.%.%.%.%.%.%.%.! ! ! - + . . . . . . . . . . . ",
". . . . . . . O > > > d d R R R R R R { { { { { t t t t t t t t t t t t 1 1 1 1 %.%.%.%.*.%.%.%.! ! ! - . . . . . . . . . . . . ",
". . . . . .   O ; y y { { -.-.-.-.-.-.{ { q.q.q.9.q.q.q.q.q.q.q.0.0.0.+.+.*.*.*.%.%.%.Q n l j h 8 ; ; @ . . . . . . . . . . . . ",
". . . .       @ ; h h { { -.-.-.-.-.-.{ { q.q.q.9.q.q.q.q.q.q.q.0.0.0.+.+.*.*.*.%.%.%.l w 5 5 & # + + ^ . . . . . . . . . . . . ",
". . . . .     O : f h { { -.-.-.-.-.-.{ { q.q.q.9.q.q.q.q.q.q.q.0.0.0.+.+.*.*.*.%.%.%.s e 5 5 5 $ + +   . . . . . . . . . . . . ",
". . . . .     @ > > > ' ' { { { { { { t.t.t.t.t.#.#.#.) K H H H b c G c l z z l j w e 4.& + + o o o X . . . . . . . . . . . . . ",
". . % . .     @ > > > ' ' { { { { { { t.t.t.t.t.#.#.#.b e 9 9 9 7 6 7 7 5 5 7 & 5 $ & + o . o . . . . . . . . . . . . . . . . . ",
". . . .   O O % g g g ' ' o.o.o.t.t.t.t.t.#.#.#.( l x 9 & & & o + + + o + + + o o . o o . . . . . . . . . . . . . . . . . . . . ",
". . .     O O % g g g ' ' o.o.o.t.t.t.t.t.#.#.#.( x l 9 & + + + + + / + o o + + o o o . o . . . . . . . . . . . . . . . . . . . ",
". . . . . O + = g g g ' ' o.o.o.t.t.t.t.t.#.#.#.z 8 8 $ o . o . . . . . . . . . . . . . . . . . . . . . . . . . . . . . . . . . ",
". . . .   O O = g g g ' ' ` ` ` t.t.t.#.#.( ( z 8 $ $ o . . . . . . . . . . . . . . . . . . . . . . . . . k . . . . . . . . . . ",
". . . . . O O # g g g ' ' ` ` ` t.t.t.#.#.z z 8 $ o   . . . . . . . . . . . . . . . . . . . . . . . . . . . . . . . . K . . . . ",
". . . . . O X # g g g ' ' ` ` ` t.t.t.#.#.j z 8 $ o + . . / . . . . . . . . . . . . . . . . . . . . . . . . . . . . . . . . . . ",
". . . . .   X @ : f f ` ` ` ` ` ` ` ` Q j 8 7 $ . . . . . . . . . . . . . . . . . . . . . . . . . . . . . . . . . . . . . . . . ",
". . . .   X X @ ; 4 4 ` ` ` ` ` ` ! ` l 8 + $ o . . . . . . . . . . . . . . . . . . . . . . . . . . . . . . . . . . . . . . . . ",
". . . .   @ @ $ , 4 y > > g g g g g g 4 - o + . . . . . . . . . . . . . . . . . . . . . . . . . . . . . . . . . . . . . . . . . ",
". . . . + @ @ $ , 4 4 > > g g g g g g 4 $ O + . . . . . . . . . . . . . . . . . . . . . . . . . . . . . . . . & . . . . . . . . ",
". . . o @ ; , 0 i h h > > g g g g g g 2 @ o o . . . . . . . . . . . . . . . . . . . . . . . . . . . . . . . . . . . . . + . . . ",
".   . @ % _ _ _ [ [ [  . . . . . . . .2 @   o . . . . . . . . . . . . . . . . . . . . . . . . . . . . . . . . . . . . . . . . . ",
". . . o % _ _ _ [  . . . . . . . . .[ , @ . o . . . . . . . . . . . . . . . . . . . . . . . . . . . . . . . . . . . . . . . . . ",
". o   + % _ _ _ [  . . . . . . . . .[ , @   . . . . . . . . . . . . . . . . . . . . . . . . . . . . . . . . . . . . . . . J . . ",
". . . o & 5 ; 0 i i i p p i i i a % 6 $ . . . . . . . . . . . . . . . . . . . . . . . . . . . . . . . . . . . . . . . . . . . . ",
". . . o o @ @ @ $ % $ & % % - % & o @ + . . . . . . . . . . . . . . . . . . . . . . . . . . . . . . . . . . . . . . . . . . . . ",
". . . . . o . o . o o o o o o o . . . . . . . . . . . . . . . . . . . . . . . . . . . . . . . . . . . . . . . . . . . . . . . . ",
". . . . . o . o o o + o o o o o 3.. . . . . . . . . . . . . . . . . . . . . . . . . . . . . . . . . . . . . . . . . . . . . . . "
};
