/* XPM */
static char *_dbade7083d04193dd7852918820a34d7MKaVBGowmS3sN3a[] = {
/* columns rows colors chars-per-pixel */
"64 64 126 2 ",
"   c #17172D",
".  c #181328",
"X  c #17182E",
"o  c #1A192E",
"O  c #171A31",
"+  c #1B1C32",
"@  c #1A2136",
"#  c #17233C",
"$  c #1C233A",
"%  c #1D293F",
"&  c #21253B",
"*  c #393939",
"=  c #172641",
"-  c #1A2640",
";  c #1C2B43",
":  c #192E49",
">  c #153141",
",  c #1E3147",
"<  c #1F334D",
"1  c #0B3B5E",
"2  c #1D3450",
"3  c #1E3B57",
"4  c #1C3B59",
"5  c #232D43",
"6  c #263146",
"7  c #283247",
"8  c #23344B",
"9  c #2B354B",
"0  c #25384D",
"q  c #2B3B4D",
"w  c #233B53",
"e  c #293D55",
"r  c #243F59",
"t  c #0A3B60",
"y  c #1D4359",
"u  c #2F4057",
"i  c #25425A",
"p  c #2A445C",
"a  c #304554",
"s  c #384D5A",
"d  c #0B4263",
"f  c #1C4365",
"g  c #0E4872",
"h  c #234A65",
"j  c #2E4C65",
"k  c #3A4466",
"l  c #304E66",
"z  c #2D516A",
"x  c #305167",
"c  c #325269",
"v  c #39566B",
"b  c #345C6F",
"n  c #3C586E",
"m  c #355A71",
"M  c #3F5A70",
"N  c #3B6474",
"B  c #3E6976",
"V  c #464A4B",
"C  c #4B4B4B",
"Z  c #4C5155",
"A  c #42565F",
"S  c #525252",
"D  c #525658",
"F  c #575A5C",
"G  c #595959",
"H  c #405661",
"J  c #405D73",
"K  c #5F6263",
"L  c #426B7C",
"P  c #45727C",
"I  c #4B767E",
"U  c gray38",
"Y  c #747474",
"T  c gray47",
"R  c #0A5D92",
"E  c #376985",
"W  c #3D6C84",
"Q  c #1973A6",
"!  c #2774A0",
"~  c #586887",
"^  c #5A6988",
"/  c #42768C",
"(  c #5C708E",
")  c #4B7B94",
"_  c #597695",
"`  c #3389A6",
"'  c #2480B5",
"]  c #308ABC",
"[  c #43A7BF",
"{  c #349FCC",
"}  c #3DB6E4",
"|  c #3EBBEA",
" . c #42A4C2",
".. c #42A4C2",
"X. c #49B8E7",
"o. c #49B8E7",
"O. c #5DCDD9",
"+. c #5DCDD9",
"@. c #4BC6E8",
"#. c #4BC6E8",
"$. c #5FC3E1",
"%. c #5FC3E1",
"&. c #68C3E1",
"*. c #68C3E1",
"=. c #60D5EE",
"-. c #60D5EE",
";. c #74DBEE",
":. c #7EFFFF",
">. c #808283",
",. c gray51",
"<. c #808384",
"1. c #848484",
"2. c #828282",
"3. c #8B9BB4",
"4. c #8B9BB4",
"5. c #A4A4A4",
"6. c #BDC9DB",
"7. c #8BEAFE",
"8. c #8BEAFE",
"9. c #93E8FF",
"0. c #93E8FF",
"q. c #82FEFE",
"w. c #88FFFF",
"e. c #ABFDFF",
"r. c #ABFDFF",
"t. c #C0CBDC",
/* pixels */
". . . . . . . . . . . . . . . . . . . . . . . . . . . . . . . . . . . . . . . . . . . . . . . . . . . .   . . . . o . . . . . . ",
". . . t.. . . . . . . . . 9 . . . . . . . . . . . . . . . . . . . . . . . . . . . . . . 5   . o + o o + o o o o o . . o . . . . ",
". . . . . . . . . . . . . . . . . . . . . . . . . . . . . . . . . . . . . . . . . . . . . . o o o o + o o o o o o o . . . . . . ",
". . . . . . . . . . . . . . . . . . . . . . . . . . . . . . . . . . . . . . . . . . . O + $ @ & 5 $ & 5 & $ % % $ + @ o o . . . ",
". . . . . . . . . . . . . . . . . . . . . . . . . . . . . . . . . . . . . . . . . . . + $ 8 8 r r r i i i i i w 0 % , $ o . . . ",
". . . . . . . . . . . . . . . . . . K . . . . . . . . . . . . . . . . . . . * . . . t.+ : ....................[ ` ` ` % + . o . ",
". . . . . . . . . . . . . . . . . . . . . . . . . . . . . . . . . . . . . . . . . O O + 8 ..................[ [ ` ` ` & o . . . ",
". . . . . . . . . . . . . . . . . . . . . . . . . . . . . . . . . . . . . . . . .   O $ 2 ..................[ [ ` ` ` & @ . o . ",
". . . . . . . . . . . . . . . . . . . . . . . . . . . . . . . . . . . . . . . . . o o + 3 g g g g g g > > h h i 0 , ; $ X . . . ",
". . . . . . . . . . . . . . . . . . . . . . . . . . . . . . . . . . . . . . . . . o o - r g g g g g g > > y 3 , % @ @ o   . . . ",
". . . . . . . . . . . . . . . . . . . . . . . . . . . . . . . . . . . . . . . o O + $ < j Q ' ' ' ' ' ' ' 4 4 = O X X   . . . . ",
". . . . . . . . . . . . . . . . . . . . . . . . . . . . . . . . . . . . . . .   $ 8 < k W ' ' ' ' ' ' ' ' f f : @ X X . . . . . ",
". . . . . . . . . . . . . . . . . . . . . . . . . . . . . . . . . F . . . . o o $ 5 8 j E Q ' ' ' ' ' ' ' f f < @ X X . . . . . ",
". . . . . . . . . . . . . . . . . . . . . . . . 4.. . . . . . . . . . . 5 o + + 0 c c #.#.r.r.r.' ' ' ] ] g g g # O X   7 . . . ",
". 1.. . . . . . . . . . . . . . . . . . . . . . . . . . . . . . . . . . o + $ 8 c / / #.#.r.r.r.' ' ' ] ] g g g = O o . . . . . ",
". . . . . . . . . . . . . . . . . . . . . . . . . . . . . . o . 5 . .   $ 9 8 c o.#.#.r.r.r.r.r.o.o.o.] ] g g g = O X . . . . . ",
". . . q . . . . . . . . . . . . . . . . . o o o o + + + + + + + + & + & 8 x z / #.#.#.r.r.r.r.r.o.o.o.] ] g g g # O X   . . . . ",
". . . . . . . . . . . . . . . . . . . . o o o o o o + o + o o o + + + & 8 c x / #.#.#.r.r.r.r.r.o.o.o.] ] g g g = O X   . . . . ",
". . . . . . . . . . . . . . . . . . o o + & & & 5 5 5 5 7 7 7 7 9 9 7 e v #.#.#.r.r.r.r.r.{ { { { { { ] ] > > > # X X . . . . . ",
". . . . . . . . . . . . . . X X o + + & 6 e e s l x l c v H v n J J J / ) #.#.#.r.r.r.r.r.{ { { { { { ] ] > > > @ X X   . . . . ",
". . . . . . . . . . . . O + + $ 5 5 5 0 j %.%.%.*.*.*.+.+.0.0.0.0.0.0.0.0.0.0.8.8.0.0.{ { -.-.-.-.-.-.{ { h f < +   . . . . . . ",
". . . . . . . . . .   X @ ; ; 3 p j j m / %.%.%.*.*.*.+.+.0.0.0.0.0.0.0.0.0.0.8.8.0.0.{ { -.-.-.-.-.-.{ { y y = O     . . . . . ",
". . . . . . . . .   . X @ ; % 0 p j j v W %.%.%.*.*.*.+.+.0.0.0.0.0.0.0.0.0.0.8.0.0.0.{ { -.-.-.-.-.-.{ { f y ; O   . . . . . . ",
". . . . . . . . . . . O = Q Q Q *.o.%.%.%.%.%.%.1 1 1 1 1 1 1 3 t t t 4 t t t t { { { { { R R R R R R d d > > > +   5 . . . . . ",
". . . . . . . . . o . + % Q Q Q *.%.%.%.*.%.%.%.1 1 1 1 1 1 1 q t t t t t t t t { { { { { R R R R R R d d > % % @ X   . . . . . ",
". . . . . . . . o .   + $ 0 8 p S S S D S U U U ,.,.,.,.,.,.` 1.2.,.2.F F V V V 1 1 1 1 1 1 t t y y y y y y y y @ X o   . . . . ",
". . . . . o   + + + + @ & % % 9 S S C D G U U U ,.,.,.,.,.,.,.,.,.,.,.G G C C V 2 1 1 1 1 d 1 t y y y y y y y y # o O   . . . . ",
". . . .       + + o o & & % % q S C S G S U U U ,.,.,.,.,.,.,.,.,.,.,.G G C V V 1 1 1 1 1 1 1 t y y y y y y y y # + O   . . . . ",
". . . o + & $ 5 7 7 7 0 q q q a s A A * * U U U * * * * * Y T T ,.,.1.1.,.,.,.,.>.,.,.,.,.,.>.>.d 1 1 ! ! y y y % + o . . . . . ",
". . . + - e w j b N N N B L B L P P I * q U U U * * * * * Y T T 1.1.1.1.,.,.,.,.>.T ,.,.,.>.>.>.d d 1 ! ! y y y > + @   . . . . ",
". . . + w } } | :.:.:.:.:.w.w.:.q.:.:.:.w.C C S Y Y Y Y Y C C C 5.5.5.5.5.5.5.5.5.5.5.5.5.>.>.>.1 1 1 ;.;.! ! ! 8 @ @   . . . . ",
". . . & r | | | :.:.:.:.:.:.:.:.:.:.:.:.w.C C C Y Y Y Y Y C C C 5.5.5.5.5.5.5.5.5.5.5.5.5.>.>.<.1 1 1 ;.;.! ! ! < @ @ . . . . . ",
". o X $ i | | | :.:.:.:.:.:.:.:.:.:.:.:.w.C C C Y Y Y Y T C C C 5.5.5.5.5.5.5.5.5.5.5.5.5.T ,.,.1 t t ;.;.! ! ! % @ @ o . . . . ",
". o o $ 0 } } | :.:.:.:.:.w.w.:.:.:.:.q.q.C C S Y Y Y Y T S C C 5.5.5.5.5.5.5.5.5.5.5.5.5.,.,.,.1 1 t ;.-.! ! ! y @ @ o . . . . ",
". .   + ; w w j b N N N B B L B P I I * * U U U * * * * * T T T ,.,.,.,.1.1.1.1.,.,.,.,.,.,.,.,.t t t ! ! y y y % O @   . . . . ",
".   .   + $ $ 6 6 7 7 0 q q e a s v Z a * U U U * * * * * T T T ,.,.,.,.,.1.1.1.,.,.,.,.,.,.,.,.t t t ! ` y y y % O O . . . . . ",
". . . . . o o o o + @ @ $ 5 5 9 Z C S S S U U U T ,.,.,.,.,.,.,.,.,.,.G G C C C 4 1 1 1 1 t 1 t y y y y y y y y % + X . . I . . ",
". . . . o o o o o @ + + - 5 5 9 S S S S S U U U ,.,.,.,.,.2.,.,.,.,.,.G G C C C 1 1 1 1 t 1 t t y y y y y y y y @ o X . . . . . ",
". . . . . . . . . . . o + 8 5 j Z S Z D S U U U 1.` T 2.1.2.1.( ,.,.,.G S V C V 1 t t t t t t t y y y y y y y d @ o o 7 . . . . ",
". . . . . . . . .   . @ = Q Q Q %.%.%.%.%.*.*.*.q 1 1 t 1 1 y t t t t t 1 1 1 1 { { { { { R R R R R R d d % % % @ X . . . . . . ",
". . . . . . . . . . . + - Q Q Q %.%.*.%.%.%.%.%.1 1 1 t t t t t t t t t t t t t { { { { { R R R R R R d d > > > O     . . . . . ",
". . . . . . . . . . o o + - - w p j l m E %.%.%.*.*.*.+.+.0.0.0.0.0.0.0.0.0.0.8.0.0.0.{ { -.-.-.-.-.-.{ { f y ; O     . . . . . ",
". . . . . . . . . o . . @ : - w m j l m W %.%.%.*.*.*.+.+.0.0.0.0.0.0.0.0.0.0.8.0.0.0.{ { -.-.-.-.-.-.{ { y y , @     . . . . . ",
". . . . . . . . . . . . + + + - - 5 _ w j %.%.%.*.*.*.+.+.0.0.0.0.0.0.0.0.0.0.8.0.0.0.{ { -.-.-.-.-.-.{ { f f > @     . . . . . ",
". . . . . . . . . . . . . o . o + + + & 5 e e j l l l l x v v J J J J ~ ) #.#.#.e.e.e.e.e.{ { { { { { ] ] > > > @     . . . . . ",
". . + . . . . . . . . . . . . . . . . o + & & & 5 * 5 5 & 7 7 7 7 7 9 e v #.#.#.e.e.e.e.e.{ { { { { { ] ] > > > # X X . . . . . ",
". . . . . . . . . . . . . . . . . . . . . . X o o + + o + + o + + + & & 8 l z / #.#.#.e.e.e.e.e.o.o.o.] ] g g g # O   . . . . . ",
". . . . . . . . . . . . . . . . . . . . o o o + o + o + + + . . + + ( & 9 l c / #.#.#.e.e.e.e.e.o.o.o.] ] g g g = O   . . . . . ",
". . . . . . . . . . . . . . . . . . . . . . . . . . . . . . . . . o . + + 0 8 l #.#.#.e.r.r.r.r.o.o.o.] ] g g g = O O   . . . . ",
". . . . . . . . . . . . . . . . . . . . . . . . . . . . . . . . . . . . + & + 9 x / / #.#.r.r.r.' ' ' ] ] g g g = O O . . . . . ",
". . . . . . . . . . . . . . . . . . . . . . . . . . . . . . . . . . . .   o o $ 8 x x #.#.r.r.r.' ' ' ] ] g g g # X O ~ . . . . ",
". . . . . . . . . . . . . . . . . . . . . . . . . . . . . F . . . . . . . . . o $ 8 8 j E ' ' ' ' ' ' ' ' f f : #   X   . . . . ",
". . . . . . . . . . . . . . . . . . . . . . . . . . . . . . . . . . . . . . . o @ 8 8 j E ' ' ' ' ' ' ' ' f f < @ X   . . . . . ",
". . . . . . . . . . . . . . . . . . . . . . . . . . . . . . . . . . . . . . . . X & + 8 z Q ' ' ' ' ' ' ' 4 4 ; + o o   . . . . ",
". . . . . . . . . . . 1.. . . . . . . . . . . . . . . . . . . . . . . . . . 5 . . O + $ 4 g g g g g g > > i 4 , % @ @ X   . . . ",
". . . . . . . . . . . . . . . . . . . . . . . . . . . . . . . . . . . . . . . . .   O @ 2 g g g g g g > > h h z 0 ; ; @   . . . ",
". . . . . . . . . . . . . . . . . . . . . . . . . . . . . . . . . . . . . . . . . o o $ 8 ..............[ [ [ [ ` ` ` % 7     . ",
". . . . . . . . . . . . . . . . . . . . . . . . . . . . . . . . . . . . . . . . .   . $ 2 ................[ [ [ ` ` ` % + . . . ",
". . . . . . . . . . . . . . . . . . . . . . . . . . . . . . . . . . . . . . . . . o . @ : ..................[ [ ` ` ` ; o . o . ",
". . . . . . . . . . . . . . . . . . . . . . . . . . . . . . . . . . . . . . . . . o . + & 8 8 w i i i i i w i i 0 ; ; @ o ^ . . ",
". . . . . . . . . . . . . . . . . . . . . . . . . . . . . . . . . . . . . . . . . . . . + + + & - & ; & & & & % & @ & o o . . . ",
". . . . . . . . . . . . . . . . . . . . . . . . . . . . . . . . . . . . . . . . . . . . o o X o + o X + o o + o .   . .   . . . ",
". . . . . . . . . . . . . . . . . . . . . . . . . . . . . . . . . . . . . . . . . . . . . o o o o + o o o o o o   . . . . . . . ",
". . . . . . . . . . . . . . . . 1.. . . . . . . . . . . . . . . . . . . . . . . . . . . . . . . . . . . . o . . . . . . . . . . "
};
