/* XPM */
static char *_42148675ebe4c1d85c7da6716635168NzCFskYyFu3g9HXj[] = {
/* columns rows colors chars-per-pixel */
"64 64 121 2 ",
"   c #17172D",
".  c #181328",
"X  c #17182E",
"o  c #1A192E",
"O  c #171A31",
"+  c #1B1C32",
"@  c #1A2136",
"#  c #17233C",
"$  c #1C233A",
"%  c #1D293F",
"&  c #21253B",
"*  c #393939",
"=  c #172641",
"-  c #1A2640",
";  c #1C2B43",
":  c #192E49",
">  c #153141",
",  c #1E3147",
"<  c #1F334D",
"1  c #0B3B5E",
"2  c #1D3450",
"3  c #1E3B57",
"4  c #1C3B59",
"5  c #232D43",
"6  c #263146",
"7  c #283247",
"8  c #23344B",
"9  c #2B354B",
"0  c #25384D",
"q  c #2B3B4D",
"w  c #233B53",
"e  c #293C54",
"r  c #243F59",
"t  c #2D3F58",
"y  c #0A3B60",
"u  c #1D4359",
"i  c #2F4057",
"p  c #25425A",
"a  c #2A445C",
"s  c #304554",
"d  c #384D5A",
"f  c #0B4263",
"g  c #1C4365",
"h  c #0E4872",
"j  c #234A65",
"k  c #2E4C65",
"l  c #3A4466",
"z  c #304E65",
"x  c #2C516A",
"c  c #305167",
"v  c #325269",
"b  c #39566B",
"n  c #345C6F",
"m  c #3C586E",
"M  c #355A71",
"N  c #3F5A70",
"B  c #3B6474",
"V  c #3E6976",
"C  c #464A4B",
"Z  c #4B4B4B",
"A  c #4C5155",
"S  c #42565F",
"D  c #525252",
"F  c #525658",
"G  c #575A5C",
"H  c #595959",
"J  c #405661",
"K  c #405D73",
"L  c #5F6263",
"P  c #426B7C",
"I  c #45727C",
"U  c #4B767E",
"Y  c gray38",
"T  c #747474",
"R  c gray47",
"E  c #0A5D92",
"W  c #376985",
"Q  c #3D6C84",
"!  c #1973A6",
"~  c #2774A0",
"^  c #5A6988",
"/  c #42768C",
"(  c #4B7B94",
")  c #507A99",
"_  c #597998",
"`  c #3389A6",
"'  c #2480B5",
"]  c #308ABC",
"[  c #5080A4",
"{  c #5A86A3",
"}  c #43A7BF",
"|  c #349FCC",
" . c #3DB6E4",
".. c #3EBBEA",
"X. c #42A4C2",
"o. c #49B8E7",
"O. c #5DCDD9",
"+. c #4BC6E8",
"@. c #5FC3E1",
"#. c #68C3E1",
"$. c #60D5EE",
"%. c #74DBEE",
"&. c #7EFFFF",
"*. c #808283",
"=. c gray51",
"-. c #808384",
";. c #848484",
":. c #8B9BB4",
">. c #899DB6",
",. c #8B9BB4",
"<. c gray63",
"1. c gray64",
"2. c #A5A5A5",
"3. c gray65",
"4. c #8BEAFE",
"5. c #93E8FF",
"6. c #81FEFE",
"7. c #85FDFD",
"8. c #88FFFF",
"9. c #ABFDFF",
"0. c #C0CBDC",
/* pixels */
". . . . . . . . . . . . . . . . . . . . . . . . . . . . . . . . . . . . . . . . . . . . . . . . . . . . . . . . . . . . . . . . ",
". . . 0.. . . . . . . . . t . . . . . . . . . . . . . . . o   o o o o . . . . . . . . . & . . . . . . . . . . . . . . . . . . . ",
". . . . . . . . . . . . . . . . . . . . . . . . . . . . .       o o . . . . . . . . . . . . . . . . . . . . . . . . . . . . . . ",
". . . . . . . . . . . . . . . . . . . . . . . . . . . .   + $ $ $ $ + o . . . . . . . . . . . . . . . . . . . . . . . . . . . . ",
". . . . . . . . . . . . . . . . . . . . . . . . . .   o + 5 w r r w ; + . . . . . . . . . . . . . . . . . . . . . . . . . . . . ",
". . . . . . . . . . . . . . . . . . ^ . . . . . . .   . $ w  ..... .w - o o l . . . 0.. . . . . . . . . . . . . . . . . . . . . ",
". . . . . . . . . . . . . . . . . . . . . . . . . . . . $ w  ..... .w $ o o . . . . . . . . . . . . . . . . . . . . . . . . . . ",
". . . . . . . . . . . . . . . . . . . . . . . . . . . . 5 k ........k 5 o + . . . . . . . . . . . . . . . . . . . . . . . . . . ",
". . . . . . . . . . . . . . . . . . . . . . . . . . + + 6 n &.&.&.&.n 5 + + . . . . . . . . . . . . . . . . . . . . . . . . . . ",
". . . . . . . . . . . . . . . . . . . . . . .   . . + + 6 B &.&.&.&.B 7 + + o . . o . . . . . . . . . . . . . . . . . . . . . . ",
". . . . . . . . . . . . . . . . . . . . .   . . o . @ o 6 B &.&.&.&.B 7 + + .   . . . . . . . . . . . . . . . . . . . . . . . . ",
". . . . . . . . . . . . . . . . . . . . .   o O @ + @ @ 0 B &.&.&.&.B 0 @ @ + + o o o o . ,.. . . . . . . . . . . . . . . . . . ",
". . . . . . . . . . . . . . . . . . . . O + @ $ $ $ $ $ q B &.&.&.&.B q $ $ # - % @ @ O . . . . . . . . . . . . . . . . . . . . ",
". . . . . . . . . . . . . . . . . . . . + ; ; ! ! 6 6 % q V 7.&.&.8.V s i & 8 ! ! ; : +   . . . . . . . . . . . . . . . . . . . ",
". ;.. . . . . . . . . . . . . . . . .   + : ; ! ! 6 & 6 s V 8.&.&.8.V q 6 & , ! ! - ; +   . . . . . . . . . . . . . . . . . . . ",
". . . . . . . . . . . . . . . . . . .   $ 3 3 ! ! a q q i P &.&.&.&.P s q q a ! ! w w $   . . . . . . * . . . . . . . . . . . . ",
". . . t . . . . . . . . . . . . . . . o * t a #.@.A A A d I &.&.&.6.I d D D A @.@.j a 5 o . . . . . . . . . . . . . . . . . . . ",
". . . . . . . . . . . . . . . . . . . + 5 z k @.@.D D Z J U &.6.&.6.U S D Z D @.@.k k 5 + o . . . . . . . . . . . . . . . . . . ",
". . . . . . . . . . . . . . . . . . . . 5 k k @.#.D D D J / 7.&.&.&.U F Z D D O.@.z z 5 + o . . . . . . . . . . . . . . . . . . ",
". . . . . . . . . . . . . . . . . . . o w M M @.o.F F D * * 6.6.&.&.q * D D F @.o.b N q & o . . . . . . . . . . . . . . . . . . ",
". . . . . . . . . . . . . . . . o . @ 5 z W Q @.#.F F F * * 6.7.6.8.* * D F D @.#.Q Q k 5 + . . . . . . . . . . . . . . . . . . ",
". . . . . . . . . . . . . . . . o o & e #.@.@.@.O.Y Y Y Y Y Z Z Z Z Y Y Y Y Y #.#.#.o.O.e & o o . . . . . . . . . . . . . . . . ",
". . . . . . . . . . . . . . . . o . $ e @.@.@.@.@.Y Y Y Y Y Z Z Z Z Y Y Y Y L @.@.@.#.#.t & o o . . . . ;.. . . . . . . . . . . ",
". . . . . . . . . . . . . . . . o o & k @.@.@.@.@.Y Y Y Y Y C C Z D Y Y Y Y Y @.@.@.@.#.z & o o . . . . . . . . . . + . . . . . ",
". . . . . . . . . . . . . . . . o + 7 z #.#.#.1 1 ;.;.;.* * T T T T * * R =.=.1 1 #.#.#.k 5 o o . . . . . . . . . . . . . . . . ",
". . . . . . . . . . . . . . . . o o 5 z #.#.#.1 1 ^ ;.;.* * T T T T * * =.=.=.1 1 #.#.#.z 5 + o . . . . . . . . . . . . . . . . ",
". . . . . . . . . . . . . . . . o + 5 { #.#.#.1 1 =.;.=.* * T T T T * * =.=.=.1 1 #.#.#.k 5 >.+ . . . . . . . . . . . . . . . . ",
". . . . . . . . . . . . . . . . o o 7 z O.O.O.y 1 ;.=.=.* * T R T T * * =.=.{ 1 y O.O.O.v 5 + o . 9 . . . . . . . . . . . . . . ",
". . . . . . . . . . . . . . . . o o 5 b O.O.O.y 1 =.=.=.* * R R T R * * =.=.=.2 y O.O.O.b 7 + + . . . . . . . . . . . . . . . . ",
". . . . . . . . . . . . . . . . + + 7 b 5.5.5.y 1 =.=.=.R R Z Z Z Z R R =.=.=.1 y 5.5.5.b * + o . . . . . . . . . . . . . . . . ",
". . . . . . . . . . . . . . . . + + 9 K 5.5.5.1 1 -.-.=.R R Z Z Z Z R R =.=.=.1 y 5.5.5.b 7 o o . . . . . . . . . . . . . . . . ",
". . . . . . . . . . . 3.. . . . 9 + 7 J 5.5.5.1 1 -.-.=.R R Z Z Z Z R R =.=.=.1 y 5.5.5.J 7 o . . . . . . . . . . . . . . . . . ",
". . . . . . . . . . . . . . . o + + 7 N 5.5.5.y 1 =.=.=.=.;.1.1.3.2.;.=.=.=.-.1 y 5.5.5.N 7 o + . . . . . . . . . . . . . . . . ",
". . . . . . . . . . . . . . . . & + 9 K 5.5.5.y 1 =.=.=.=.=.1.1.1.1.=.=.=.=.-.1 y 5.5.5.K 9 & o o . . . . . . . . . . . . . . . ",
". . . . . . . . . . . . . . . o o & 9 K 5.5.5.1 1 -.=.=.=.=.1.1.1.1.=.=.-.-.-.1 y 5.5.5.K 9 + & . . . . . . . . . . . . . . . . ",
". . . . . . . . . . . . . . . o & & t P 5.5.4.1 y H H H =.=.3.3.3.3.=.=.H H G 1 y 5.5.5./ q & & o . . . . . . . . . . . . . . . ",
". . . . . . . . . . . . . o o + 9 9 b ( 5.5.5.1 y H H H =.=.3.3.2.2.=.=.H H H 1 y 5.5.5.( b 0 9 & o . . . . . . . . . . . ^ . . ",
". . . . . . . . . . . . . o $ 9 z v +.+.5.5.5.1 y Z Z C =.=.2.2.2.2.=.=.Z Z C 1 y 5.5.5.+.+.c c 7 & o . . . . . . . . . . . . . ",
". . . . . . . . . . . . . o $ 8 z x +.+.5.5.5.1 1 Z Z C =.=.2.2.2.2.=.=.Z Z C y y 5.5.5.+.+.v v 7 $ o . . . . . . . . & . . . . ",
". . . . . . . . . . . . + + 8 v / / +.+.4.4.4.1 1 Z C Z =.=.2.2.2.2.=.=.C C C y y 4.4.4.+.+./ / z 8 $ o o . . . . . . . . . . . ",
". . . . . . . . . . o + - 8 z +.+.+.9.9.5.5.5.| | 1 1 1 =.=.1.1.<.2.=.=.1 1 1 | | 5.5.5.9.9.+.+.+.v 8 $ $ o . . . . . . . . . . ",
". . . . . . . . o + + 8 8 v / +.+.+.9.9.5.5.5.| | y 1 1 =.=.1.1.2.<.=.=.1 1 1 | | 5.5.5.9.9.+.+.+./ z 8 7 & o o . . . . . . . . ",
". . . . o + . . + + + 8 8 z / +.+.+.9.9.5.5.5.| | y 1 1 =.=.1.1.2.<.=.=.1 1 y | | 5.5.5.9.9.+.+.+./ v _ 7 # o o . . o . . . . . ",
". . . . o + + + + - 8 x k +.+.9.9.9.9.9.| | | | | y 1 1 =.=.<.<.<.<.=.=.1 1 y | | | | | 9.9.9.9.9.+.o.j l < - # + $ $ o o . . . ",
". . o + - : 8 8 2 3 j W W +.+.9.9.9.9.9.| | | | | y 1 y =.*.<.<.<.<.=.=.1 1 y | | | | | 9.9.9.9.9.+.+.W W j 4 2 8 8 : $ o . . . ",
". o 7 + 8 X.X.X.h h ! ] ' 9.9.9.9.9.| | $.$.$.E E 1 1 y =.*.*.*.=.=.=.=.1 1 y E E $.$.$.| | 9.9.9.9.9.! ' ' h h X.X.X.8 $ . o . ",
". o . + 8 X.X.X.h h ' ' ' 9.9.9.9.9.| | $.$.$.E E 1 1 1 =.=.*.*.=.=.=.=.1 1 y E E $.$.$.| | 9.9.9.9.9.' ! ' h h X.X.X.8 $ o o . ",
"  o o - r X.X.X.h h ' ' ' 9.9.9.9.9.| | $.$.$.E E 1 1 1 =.=.*.-.=.=.=.=.y y y E E $.$.$.| | 9.9.9.9.9.' | ! h h X.X.X.w & o o . ",
". o o 5 p X.X.X.h h ' ' ' ' ' o.o.o.| | $.$.$.E E u u u 1 1 1 1 y y 1 1 u u u E E $.$.$.| | o.o.o.' ' ' ' ' h h X.X.X.r - o o . ",
". o   - p X.X.X.h h ' ' ' ' ' o.o.o.| | $.$.$.E E u u u 1 1 1 1 y y y 1 u u u E E $.$.$.| | o.o.o.' ' ' ! | h h X.X.X.a 5 X o . ",
". o o 5 p X.X.X.h h ' ' ' ' ' o.o.o.| | $.$.$.E E u u u 1 1 f 1 y y 1 1 u u u E E $.$.$.| | o.o.o.' ' ' ! ! h h X.X.X.) 5 o o o ",
". o o $ p X.X.X.> > ' ' ' ] ] ] ] ] ] ] | | | f f u u u ~ ~ %.%.%.%.~ ~ u u u f f | | | ] ] ] ] ] ] ] ' | ! > > X.X.X.a - o o . ",
". o o & r X.X.X.> > ' ' ' ] ] ] ] ] ] ] | | | f f u u u ` ! %.%.%.%.~ ~ u u u f f | | | ] ] ] ] ] ] ] ! ] ! > > X.X.X.r - o o . ",
". o o - r X.} } j 4 4 g g h h h h h > > g g u > % u u u u u ~ ~ ~ ~ u u u u u > > u g g > > h h h h h g g j r j X.X.X.r & o o . ",
". o o & a X.} } j r 4 [ g h h h h h > > g u u > % u u u u u ~ ~ ~ ~ u u u u u > > u u g > > h h h h h j g 4 r j X.X.X.r & o o o ",
". + o 5 w X.} } p , ; : , h h h h h > > , > > % > u u u u u ~ ~ ~ ~ u u u u u > > > ; , > > h h h h h , : ; : x } } X.e & o o . ",
". o o $ 0 ` ` ` w # + @ @ # = = = # # @ @ O X @ @ @ % % % > < < < < , % # % @ @ O O O + # # # = = = # @ @ @ $ 0 ` ` ` 0 0     . ",
". . o @ ; ` ` ` ; @ o X O O O O X O O X               X + @ @ @ @ @ + O X X                 O O + O X X X o @ , ` ` ` , + o   . ",
". o o o ; ` ` ` 6 @ X X   O O O X O . .           X X o + @ + @ @ @ + + O o X       . .     O O + O X X X X @ & ` ` ` ; + o   . ",
". . o o @ % % % @ o   . . .     . . . . . . . .     .   .     . X       . .     . . . . .   .         . .   o & & 6 % @ + ^ . . ",
". . . . o + + o   . . . . . .   . . . . . . . . . .   . . . . . . . . .   . . . . . . . . . . . . . . . . . . o + o + o   . . . ",
". . . . . . o o . . . . . . . . . . . . . . . . . . . . . . . . . . . . . . . . . . . . . . . . . . . . . . . . o o . . . . . . ",
". . . . . o . . . . . . . . . . . . . . . . . . . . . . . . . . . . . . . . . . . . . . . . . . . . . . . . . . . o . . . . . . ",
". . . . . . . . . . . . . . . . ,.. . . . . . . . . . . . . . . . . . . . . . . . . . . . . . . . . . . . . . . . . . . . . . . "
};
