/* XPM */
static char *e1231bfee5634d80a4df448ee547ed52uJ4XBUGiWt1QoCpM[] = {
/* columns rows colors chars-per-pixel */
"64 64 123 2 ",
"   c #17172D",
".  c #181328",
"X  c #17182E",
"o  c #1A192E",
"O  c #171A31",
"+  c #1B1C32",
"@  c #1A2136",
"#  c #17233C",
"$  c #1C233A",
"%  c #1D293F",
"&  c #21253B",
"*  c #393939",
"=  c #172641",
"-  c #1A2640",
";  c #1C2B43",
":  c #192E49",
">  c #153141",
",  c #1E3147",
"<  c #1F334D",
"1  c #0B3B5E",
"2  c #1D3450",
"3  c #1E3B57",
"4  c #1C3B59",
"5  c #232D43",
"6  c #282F48",
"7  c #263146",
"8  c #283247",
"9  c #23344B",
"0  c #2B344B",
"q  c #25384D",
"w  c #2B3B4D",
"e  c #233B53",
"r  c #293D55",
"t  c #243F59",
"y  c #0A3B60",
"u  c #1D4359",
"i  c #2F4057",
"p  c #25425A",
"a  c #2A445C",
"s  c #304554",
"d  c #384D5A",
"f  c #0B4263",
"g  c #1C4365",
"h  c #0E4872",
"j  c #234A65",
"k  c #2E4C65",
"l  c #364363",
"z  c #3A4466",
"x  c #304E65",
"c  c #3A486A",
"v  c #305167",
"b  c #325269",
"n  c #39566B",
"m  c #345C6F",
"M  c #3C586E",
"N  c #3A5072",
"B  c #355A71",
"V  c #3F5A70",
"C  c #3B6474",
"Z  c #3F6A76",
"A  c #464A4B",
"S  c #4B4B4B",
"D  c #4C5155",
"F  c #42565F",
"G  c #525252",
"H  c #525658",
"J  c #575A5C",
"K  c #595959",
"L  c #405661",
"P  c #405D73",
"I  c #5F6263",
"U  c #426B7C",
"Y  c #45717C",
"T  c #4B767E",
"R  c gray38",
"E  c #747474",
"W  c gray47",
"Q  c #0A5D92",
"!  c #376985",
"~  c #3D6C84",
"^  c #1973A6",
"/  c #2774A0",
"(  c #506382",
")  c #5A6A89",
"_  c #42768C",
"`  c #4B7B94",
"'  c #3389A6",
"]  c #2480B5",
"[  c #308ABC",
"{  c #649AA8",
"}  c #679EB2",
"|  c #43A7BF",
" . c #349FCC",
".. c #3DB6E4",
"X. c #3EBBEA",
"o. c #42A4C2",
"O. c #7EADC7",
"+. c #49B8E7",
"@. c #5DCDD9",
"#. c #4BC6E8",
"$. c #5FC3E1",
"%. c #68C3E1",
"&. c #60D5EE",
"*. c #74DBEE",
"=. c #7EFFFF",
"-. c #828282",
";. c #8A9BB4",
":. c #82A2BC",
">. c #80A3BC",
",. c gray63",
"<. c gray64",
"1. c #A5A5A5",
"2. c gray65",
"3. c #B2BFD1",
"4. c #BECADB",
"5. c #B5D5DC",
"6. c #8BEAFE",
"7. c #93E8FF",
"8. c #81FEFE",
"9. c #85FDFD",
"0. c #88FFFF",
"q. c #ABFDFF",
"w. c #C0CBDC",
/* pixels */
". . . . . . . . . . . . . . . . . . . . . . . . . . . . . . . . . . . . . . . . . . . . . . . . . . . . . . . . . . . . . . . . ",
". . . 4..   . . . . . . . z . . . .   . . . . . . . . . . . . . . . . . . . . . . . . . $ . . . . . . . . . . . .   o . . . . . ",
". . . .   .   . . . . . . . . . . . . . . . . . . . . . . . . . . . . . . . . . . . . . . . . . . . . . . . . . o o . . . . . . ",
". . . . o + o + + o . . . . . . . . . . . . . . . . . . . . . . . . . . . . . . . . . . . . . . . . . . . . o o o o + o . . . . ",
". . . + $ & - ; @ o   . . . . .   . . . . . . . . . . . .           . . . .   . . . . .         . .   . .   o @ % % % $ + o . . ",
".   o + ; ' ' ' , @ X X o o + + O O ( X             + X + @ @ # @ @ @ @   X l       5..   O O O O   O X   X @ ; ' ' ' % + . o . ",
".     + 5 ' ' ' % @ X X X X X @ O O X       X   .   X + O @ @ @ @ @ @ o X X                 O O O O O O   X + ; ' ' ' , + o . . ",
". o   $ q ' ' ' q % X # # # = = # # # @ @ + @ @ @ # # $ % > < < < < > % % % @ @ O @ O O O # > # = = # O O # - e ' ' ' q $ o o . ",
". o o $ p | | | p , - , : h h h h h % > > > > > % u u u u u / / / / u u u u u % > % % u > > h h h h h : , ; , a | | | e $   o . ",
". o o % p o.| o.j 3 3 g g h h h h h > > j u u > % u u u u 4 / / / / u u u u u % > f u u > > h h h h h g g 4 3 j | | | p % o + . ",
". o   % p | o.o.j u 3 g g h h h h h % # h u u > % u u u u u / / / / u u u u u % > u u j % % h h h h h g g 4 4 j | | o.p & o o . ",
". o   % p | o.o.> > ] ] ] [ [ [ [ [ [ [  . . .f f u u u / / *.*.*.*./ / u u u f f  . . .[ [ [ [ [ [ [ ] ] ] > ; | | o.p 5 o o . ",
"o o o & p o.o.o.> > ] ] ] [ [ [ [ [ [ [  . . .f f u u u / / *.*.*.*./ / u u u f f  . . .[ [ [ [ [ [ [ ] ] ] : : o.o.o.p % o o . ",
". o o 5 p o.o.o.h h ] ] ] ] ] +.+.+. . .&.&.&.Q Q u u u y y y y 1 1 y y u u u Q Q &.&.&. . .+.+.+.] ] ] ^  .h h o.o.o.p r   + . ",
". ;.o % p o.o.o.h h ] ] ] ] ] +.#.+. . .&.&.&.Q Q u u u y y y y y y y y u u u Q Q &.&.&. . .X.+.+.] ] ] ^ ^ h h o.o.o.p & o o . ",
". o o % p o.o.o.h h ] ] ] ] ] +...#. . .&.&.&.Q Q u u u y y y 1 y y y y u u u Q Q &.&.&. . .#.+.+.] ] ]  .^ h h o.o.o.t 5 o + . ",
". o   N e o.o.o.h h ^ ^  .q.q.q.q.q. . .&.&.&.Q Q y y y -.-.-.-.-.-.-.-.y y y Q Q &.&.&. . .q.q.q.q.q.]  .^ h h o.o.o.e $ o o . ",
". o . & 9 o.o.o.h h  .^ ^ q.q.q.q.q. . .&.&.&.Q Q y 1 y -.-.-.-.-.-.-.-.y 1 y Q Q &.&.&. . .q.q.q.q.q.] ^ ^ h h o.o.o.< + o o . ",
".   o @ 9 o.o.o.h h [ ^ / q.q.q.q.q. . .&.&.&.Q Q y 1 y -.-.-.-.-.-.-.-.1 y 1 Q Q &.&.&. . .q.q.q.q.q.] ^  .h h o.o.o.< + o o . ",
".   . + % , 2 9 2 4 j ! ! #.#.q.q.q.q.q. . . . . .y y 1 -.-.,.,.,.<.-.-.1 1 1  . . . . .q.q.q.q.q.#.#.! ! j 4 2 r 2 6 - o . o . ",
". . . o o @ $ + + - 9 k k #.#.q.q.q.q.q. . . . . .y 1 1 -.-.,.,.,.,.-.-.1 1 1  . . . . .q.q.q.q.q.#.#.k k , $ + # + + + o . . . ",
". . . . .     O   o $ 9 6 b _ #.#.#.q.q.7.7.7. . .1 1 1 -.-.<.<.<.<.-.-.1 1 1  . .7.7.7.q.q.#.#.#.~ v 9 9 $ + o o o o . . . . . ",
". . . . .   o o   + $ 9 6 k _ #.#.#.q.q.7.7.7. . .1 1 4 -.-.<.<.<.<.-.-.1 1 y  . .7.7.7.q.q.#.#.#._ b 9 >.$   o o o . . . . . . ",
". . . . . . . . . .   $ $ < b #.#.#.q.q.7.7.7. . .1 4 9 -.-.<.<.<.<.-.-.1 1 1  . .7.7.7.q.q.#.#.#.b q $ $   . . . . 6 . . . . . ",
". . . . . . . . . . . . o & 0 b _ _ #.#.7.6.6.y y A S S -.-.1.1.<.2.-.-.S S S 1 y 7.6.6.#.#._ _ b 6 + . . . . . . . . . . . . . ",
". . . . . . . . . . . . . o + q b b #.#.7.7.7.1 y A A S -.-.1.1.<.2.-.-.S S S 1 y 7.7.7.#.#.b b 9 $ o . . . . . . . . . . . . . ",
". . . . . . . . . . . . . o & 8 x b #.#.7.7.7.1 1 A A A -.-.1.1.2.2.-.-.S S S 1 y 7.7.7.#.#.O.b 9 $ . . . . . . . . . . . . . . ",
". . . . . . . . . . . . . . . & 9 0 n ` 7.7.7.1 1 K K K -.-.2.2.2.2.-.-.K K G 1 y 7.7.7.` n q 9 & c . . . . . . . . . . . . . . ",
". . . . . . . . . . . . . . . . & 5 r U 7.7.7.1 1 J K K -.-.2.2.2.2.-.-.K K K 1 1 7.7.7.( r & & o . . . . . . . . . . . . . . . ",
". . . . . . . . . . . . . . . . + + 0 P 7.7.7.1 y -.-.-.-.-.<.<.2.2.-.-.-.-.-.1 1 7.7.7.P 0 + + . . . . . . . . . . . . . . . . ",
". . . . . . . . . . . . . . . . & + 0 P 7.7.7.1 y { W -.-.-.<.<.2.2.-.-.-.-.-.1 1 7.7.7.P w + & . . . . . . . . . . . . . . . . ",
". . . . . . . . . . . 3.. . . . 6 + 0 P 7.7.7.1 y -.-.-.-.-.<.<.2.2.-.-.-.-.) y 1 7.7.7.P 0 + + . . . . . . . . . . . . . . . . ",
". . . . . . . . . . . . . . . . + + 8 M 7.7.7.y 1 -.-.-.W W S S S S W W -.-.-.4 y 7.7.7.M 7 + + . . . . . . . . . . . . . . . . ",
". . . . . . . . . . . . . . . . + + 8 n 7.7.7.y 1 -.-.-.W W S S S S W W -.-.-.1 y 7.7.7.M 7 o & . . . . . . . . . . . . . . . . ",
". . . . . . . . . . . . . . . . + + 7 n 7.7.6.y 1 -.-.-.W W S S S S W W -.-.-.1 1 7.7.7.n 7 o o . . . . . . . . . . . . . . . . ",
". . . . . . . . . . . . . . . . + o 5 b @.@.@.y y -.-.-.* * E E W E * * -.-.-.1 1 @.@.@.b 7 o + . . . . . . . . . . . . . . . . ",
". . . . . . . . . . . . . . . . o + * b @.@.@.y y -.-.-.* * E E E E * * -.-.-.1 1 @.@.@.x 6 + o . . . . . . . . . . . . . I . . ",
". . . . . . . . . . . . . . . . + o 5 x %.%.%.1 1 -.-.-.* * E E E E * * -.-.{ 1 1 %.%.%.4.6 o + . . . . . . . . . . . . . . . . ",
". . . . . . . . . . . . . . . . + + 5 x %.%.%.1 1 -.-.-.* * E E E E * * -.-.W 2 1 %.%.%.v & + o . . . . . . . . . . . 5 . . . . ",
". . . . . . . . . . . . . . . . o   5 x %.%.%.1 1 -.-.-.* * E E E E * * -.-.-.1 1 %.%.%.v 7 o o . . . . . . . . . . . . . . . . ",
". . . . . . . . . . . . . . . . o o & x %.$.$.$.$.R R R R R S S S S K R R R R $.$.$.$.$.a 5 6 o . . . . . . . . . . . . . . . . ",
". . . . . . . . . . . . . . . . . o & r $.$.$.$.$.R R R R R S S S S R R R R R %.$.$.$.$.r & o o . . . . . . . . . . . . . . . . ",
". . . . . . . . . . . . . . . . 6 o & r $.$.$.$.$.R R R R R G S S S R R R R I $.$.$.$.$.r & o o . . . J . . . . . . . . . . . . ",
". . . . . . . . . . . . . . . . o . ) 6 k ~ ~ $.$.G K G * * 9.8.9.9.* * G H H $.$.~ ~ k 6 + . o . . . . . . . . . . . . . . . . ",
". . . . . . . . . . . . . . . . o . . & q B B $.$.K G K * * =.=.8.8.* * K K H $.$.B B O.+ o . . . . . . . . . . . . . . . . . . ",
". . . . . . . . . . . . . . . . . . . o 5 x x $.$.G G S L T =.=.=.=._ L S G D $.$.v k 9 + . . . . . . . . . . . . . . . . . . . ",
". . . . . . . . . . . . . . . . . . . & 5 x x $.$.S S D F T =.=.=.=.T L G S G $.$.k x 5 + . . . . . . . . . . . . . . . . . . . ",
". . . . . . . . . . . . . . . . . . . o - j a $.$.G G G d T =.=.=.=.{ d G D D $.$.p p 5 o . . . . . . . . . . . . . . . . . . . ",
". . . . . . . . . . . . . . . . . . . X $ e e ^ ^ a 0 r s Z =.=.=.=.Y i w w a ^ ^ 2 q $ . . . . . . . . . . . . . . . . . . . . ",
". . . . . . . . . . . . . . . . . . . . O ; ; ^ ^ : 5 5 s Z 9.=.=.9.Z w 5 5 9 ^ ^ ; ; + . . . . . . . . . r . . . . . . . . . . ",
". . . . . . . . . . . . . . . . . . . . + : ; ^ ^ 6 5 & w U 9.=.=.9.Z w 5 5 , ^ ^ ; $ o . . . . . . . . . . . . . . . ) . . . . ",
". . . . . . . . . . . . . . . . . . . . O + + ; = $ $ & w { =.=.=.=.Z w $ @ $ % % @ . . . . . . . . . . . . . . . . . . . . . . ",
". . . . . . . . . . . . . . . . . . . . . . . . O O & o w C =.=.=.=.Z 9 & o o + O X X   . . . . . . . . . . . . . . . . . . . . ",
". . . . . . . . . . . . . . . . . . . . . . . . o . @ + 8 C =.=.=.=.C 7 + + o . . .   . . . . . . . . . . . . . . . . . . . . . ",
". . . . . . . . . . . -.. . . . . . . . . . . . . o + @ 8 C =.=.=.=.C 9 @ + 7 .   . . . . . . . . . . . . . . . . . . . . . . . ",
". . . . . . . . . . . . . . . . . . . . . . . . . . + o 7 m =.=.=.=.m 7 o + . . . . . . . . . . . . . . . . . + . . . . . . . . ",
". . . . . . . . . . . . . . . . . . . . . . . . . . + o ; x X.X.X.X.k 5 o O . . . . . . . . . . . . . . . . . . . . . . + . . . ",
". . . . . . . . . . . . . . . . . . . . . . . . . . o   $ e ..X.X...e % o   . . . . . . . . . . . . . . . . . . . . . . . . . . ",
". . . . . . . . . . . . . . . . . . . . . . . . . . o o $ t ..X.X...e $ o o . . . . . . . . . . . . . . . . . . . . . . . . . . ",
". . . . . . . . . . . . . . . . . . . . . . . . . . o   + - 9 t t q ; + . . . . . . . . . . . . . . . . . . . . . . . . . I . . ",
". . . . . . . . . . . . . . . . . . . . . . . . . . . . o + + 5 $ $ +   . . . . . . . . . . . . . . . . . . . . . . . . . . . . ",
". . . . . . . . . . . . . . . . . . . . . . . . . . . . . o o o o o o   . . . . . . . . . . . . . . . . . . . . . . . . . . . . ",
". . . . . . . . . . . . . . . . . . . . . . . . . . . . .   o o   o . . . . . . . . . . . . . . . . . . . . . . . . . . . . . . ",
". . . . . . . . . . . . . . . . ;.. . . . . . . . . . . . . . . . . . . . . . . . . . . . . . . . . . . . . . . . . . . . . . . "
};
