/* XPM */
static char *_1a146969b7d4531dc02b1c1fac3752fvnQzuM7V2JPWn6gE[] = {
/* columns rows colors chars-per-pixel */
"64 64 134 2 ",
"   c #150A02",
".  c #1C0D02",
"X  c #160C0E",
"o  c #1A0E0D",
"O  c #1E100C",
"+  c #0E0915",
"@  c #160D14",
"#  c #180E15",
"$  c #160E1B",
"%  c #1D1114",
"&  c #17101F",
"*  c #1A121A",
"=  c #210F03",
"-  c #241104",
";  c #2C1605",
":  c #2D1807",
">  c #22120D",
",  c #2A150A",
"<  c #301706",
"1  c #321907",
"2  c #381C07",
"3  c #361B09",
"4  c #3A1E09",
"5  c #211412",
"6  c #3F200B",
"7  c #171124",
"8  c #181325",
"9  c #1E1A23",
"0  c #171228",
"q  c #181328",
"w  c #1C192D",
"e  c #1E1E32",
"r  c #201D27",
"t  c #211E2F",
"y  c #201F33",
"u  c #1F2036",
"i  c #24232B",
"p  c #232233",
"a  c #292737",
"s  c #242538",
"d  c #27293D",
"f  c #2A2C3D",
"g  c #44230C",
"h  c #49260D",
"j  c #4D280F",
"k  c #512A0F",
"l  c #462711",
"z  c #4D2A11",
"x  c #532C11",
"c  c #592F12",
"v  c #553016",
"b  c #5D3215",
"n  c #5D3519",
"m  c #623516",
"M  c #693717",
"N  c #6B3917",
"B  c #623618",
"V  c #66391A",
"C  c #6C3B1A",
"Z  c #723E1B",
"A  c #6C3F21",
"S  c #75411D",
"D  c #76421E",
"F  c #76431F",
"G  c #7A431D",
"H  c #7A451F",
"J  c #6E4122",
"K  c #744423",
"L  c #794520",
"P  c #7B4622",
"I  c #7C4721",
"U  c #7D4722",
"Y  c #7E4821",
"T  c #7E4924",
"R  c #2D3040",
"E  c #2F3143",
"W  c #313140",
"Q  c #323240",
"!  c #353643",
"~  c #363644",
"^  c #373846",
"/  c #3C3E4B",
"(  c #383C4D",
")  c #3A3E4F",
"_  c #3E4354",
"`  c #3E4455",
"'  c #404657",
"]  c #414758",
"[  c #4A4D5A",
"{  c #4B4E5B",
"}  c #4C4F5C",
"|  c #545865",
" . c #83461E",
".. c #87491F",
"X. c #804922",
"o. c #824B23",
"O. c #874A20",
"+. c #814A24",
"@. c #814B24",
"#. c #834B24",
"$. c #824B25",
"%. c #854C24",
"&. c #8E4D21",
"*. c #8C4D22",
"=. c #884D25",
"-. c #894E24",
";. c #8A4E25",
":. c #8B4F26",
">. c #834E29",
",. c #914E22",
"<. c #8D5026",
"1. c #86512B",
"2. c #8C532D",
"3. c #945225",
"4. c #975527",
"5. c #9A5425",
"6. c #9C5626",
"7. c #92572E",
"8. c #9B5628",
"9. c #9D5728",
"0. c #97592F",
"q. c #9D592B",
"w. c #945931",
"e. c #9B5D33",
"r. c #A15929",
"t. c #A55B2A",
"y. c #A65B2A",
"u. c #A55C2C",
"i. c #A95D2A",
"p. c #AB5E2B",
"a. c #AC5E2B",
"s. c #AC5F2B",
"d. c #AD5F2B",
"f. c #A15E31",
/* pixels */
"q ^ | | / y q q q q q w y s w 0 q 0 q q q q q q q q 7 q 7 8 8 q q q q q q q 8 q 0 0 q q w w 0 q q q q q q 0 q 8 q q q q q q q q ",
"q Q { } ~ t q q q q q w y y e 0 q q q q q q q q q q q q 0 q q q q q 0 q 0 8 q q 0 0 0 q w q q q q q q q q q q 0 q q q q q q 0 q ",
"q p ! ~ a w q q q q q q w e 0 0 0 0 0 0 q 7 q q 0 q q q q q q 0 q q q q q q q q 0 q q 0 0 w q q q q q q q q q 8 q q q q q q 8 q ",
"q w t t w q q q q q q q 0 0 0 0 0 w e e w 0 q 0 q q q q 0 q q q q q q q q q q w t p Q Q p q q q q q q q q q q 8 q q 0 8 q q q q ",
"q w w q q q q 7 q q q q 0 0 q q w e s s w q q q q q q q q 0 q q q q 0 0 q w y y y ~ } { Q q 0 q q q q q q q q 0 q q q q q q 0 0 ",
"q 7 q q q q q q q q q q 0 0 q q w y d R e q q q q q q 0 q q 0 q q 0 0 0 q t e y y ~ } } Q q & q q q q q q q q q q q q q q q q 8 ",
"q q q q q q q q q q q q q q q q q w p w w q q q q q 0 q q q q q q 0 0 0 0 0 w e t a ~ ~ p q 0 q q q q q 0 0 0 0 q q 0 8 q q q q ",
"q q q 7 q q q q q q q q q q q q 7 q w w q q q q q q 0 q 0 q 0 q q q w 0 0 0 0 0 q r t e q q q q q q q q 0 0 0 q q q q q q q q q ",
"0 q q q q q q q q q q q q 0 0 0 q q q q q q q q q q 7 q q q q 8 q q q q q 0 & & & & & & & & & q q q q q q q q q 0 0 q q q 0 8 q ",
"8 q q q q q q q q q q q q 0 8 0 0 q q q q 0 q q q 7 q q q 7 7 8 8 8 0 & & # o > > > o > 5 5 # & 0 & 0 q q q q q q 8 q q q 0 q q ",
"q q q q q q q q q q q q 8 0 q q q q q q q q q q q q q q $ X X X @ X X o X   - 3 1 1 1 1 3 ; = o @ X $ & 0 0 q q q q q q q q q q ",
"q q q q q q q q q q q q q q q q q q q 0 q q w w p * # @ X .   . .   .     . ; 3 4 4 3 4 3 3 1 =       # & 0 q q q q q q q q q q ",
"t t q q q q q q 8 0 q q q q q q 7 q w 0 q 8 9 9 i o   . ; 4 g 4 6 6 6 6 6 g g h h h h h h g 3 1 ; = .   @ $ q q 0 q 0 0 q w q q ",
"R d y q q q q q q 0 q q q q q q 7 w 7 7 7 & @ o > 4 3 3 g c b m m b B B b b B B m b m c x x h 6 4 1 -   X # & q q q q w w q q q ",
"' ( f t q q q q q q q q q q q q 8 7 7 & o . - ; 4 j v b b M Z S Z Z Z Z Z Z Z Z Z Z Z M c c x x h 4 1 =     # 0 q q q q q w q q ",
"( ( f y q q q q q q q q q 8 8 0 7 & X X . - g j x b S I I o.$.o.O.$.=.%.O.%.=.%.$.o.H Z Z N b x x h 4 3 =     # q q q q q q q q ",
"f f s y e 0 0 w q q q q q 0 7 @ @ X . ; g h x M S H %.4.t.8.y.y.r.r.r.r.r.r.r.6.8.=.T H S S N b k k h 4 =       # & q q q q q q ",
"q w e y 0 0 0 0 q q q q q q $ @ = 1 4 h x m C I =.5.6.p.d.d.s.s.s.s.s.s.d.d.d.d.t.<.o.T H S Z C m k k 4 1 =       # $ q q q 0 0 ",
"q q q w q q 0 0 q 7 0 q $ $ $ . 2 j c M C Z I ;.5.t.d.d.p.s.s.s.s.s.d.p.p.5.*.*...H I T H H S S N m k h 4 1 =     X @ q q 0 q 0 ",
"q q 0 0 q q q q q q 0 & $ > , 3 h c Z o.=.;.;.8.p.d.d.d.d.p.s.s.s.s.p.d.t.G h g 6 g m K G S S S Z Z c k g 2 1 =       @ $ q q q ",
"q q q q q q q q q q 0 + . 2 h x b C X.2.e.r.t.t.d.d.d.d.d.d.d.d.s.s.s.p.8.N       . 6 6 v C S S S Z C b k g 3 1 =       # q 8 q ",
"q q q q q q 0 q q q 7 X . 4 m S L X.3.t.p.d.d.d.d.d.d.d.d.d.d.d.s.s.6.S C z 3 1 ; .     ; g j M S S S C b k h 4 1 =     @ 7 q q ",
"q q q q q q q q q $ $ = 3 h Z 3.8.8.t.d.d.d.d.d.d.d.d.d.d.d.d.d.p.6.Z c K I V g 1 ; .     . 1 b S S S Z C m j g 2 < =   o $ q q ",
"q q 0 q q q q q q $ o 3 z M *.t.p.d.p.d.d.d.d.d.d.d.d.d.d.d.d.d.p...h b 2.w.T j g 6 : .     < b S S S S Z C b j 4 2 1 = @ 0 q q ",
"q q q q q q q 0 $ . < j B $.e.d.d.p.d.p.d.d.d.d.d.d.d.d.d.d.d.d.p...g M 7.e.1.n x g 3 ; .   ; b Z Z Z L Z Z M k 6 3 3 ; o q 8 q ",
"q q q q q q 7 + X ; j B $.e.d.p.p.d.d.d.d.d.d.d.d.d.d.d.d.d.d.d.y...h V 7.e.0.1.n z g 3 ; . = 4 B Z L Z L Z C x 6 4 3 < # 7 q q ",
"q q q q q q 7 @   < B =.r.p.d.d.d.p.d.d.d.d.d.d.d.d.d.d.d.d.d.d.i...g M 7.e.e.7.T B h g ; . ; : c Z L Z Z L C x 6 3 3 < # $ q q ",
"q q q q q 7 $ o < n >.0.u.5. .Z  .r.d.d.d.d.d.d.d.d.d.d.d.d.d.d.y...g N 7.e.e.e.7.M x h < - ; < c Z Z L Z Z M x 6 4 4 < o 0 q 8 ",
"q q q q q 7 # , v >.e.f.3.Z g 3 k ,.d.d.d.d.d.d.d.d.d.d.d.d.d.d.y...l V 7.e.e.e.w.I n h < = ; < x Z L Z Z L Z x 4 4 3 < o 8 q q ",
"q q q q 0 & # 4 A 0.f.r. .c z o h ..d.d.d.d.d.d.d.d.d.d.d.d.d.d.y...l V 7.e.e.e.e.>.C h ; = 3 3 x Z Z L L Z C x g 3 3 < o 8 8 q ",
"q q q 8 & X . 6 A f.f.r.Z A K , g ,.d.d.d.d.d.d.d.d.d.d.d.d.d.d.y...l B w.e.e.e.w.K b g 1 = ; < c Z Z L P Z C x 4 4 3 1 o 8 q q ",
"q q 7 7 X   . 6 I f.r.Z b A 1.3 g ,.d.d.d.d.d.d.d.d.d.d.d.d.d.d.i...6 J w.e.e.e.7.m h 4 1 . = , c Z L Z Z Z C x 4 4 3 1 o 8 q q ",
"0 0 $ + = ; ; l K 7.K v A 1.>.< g ,.d.d.d.d.d.d.d.d.d.d.d.d.d.d.i...g n 7.e.e.0.K b g 1 - . ; g N S S S S S C x g 3 ; - X 7 w 7 ",
"0 0 +   = 3 4 z K 1.n J 1.2.A ; h ,.d.d.d.d.d.d.d.d.d.d.d.d.d.d.y.4.M c Y 7.e.2.m z 4 :     ; b S S S S S S C x 6 3 ; . X 7 8 7 ",
"q 0 @ . ; 4 x B >.>.n T 2.K 4 ; m ,.d.d.d.d.d.d.d.d.d.d.d.d.d.d.s.p.<.M n T 2.Y x 4 2 -   . g m S S S S S S N k 6 3 ;   X q w 7 ",
"0 0 # ; 3 4 v $.e.3.A Y J 4   k ,.d.d.d.d.d.d.d.d.d.d.d.d.d.d.d.s.s.i.,.n z v z 4 2 ; .   2 m S S S S S S S C x 6 3 ;   @ e w q ",
"q 0 # ; 4 z B <.r.3.x x 4 . = c 6.d.d.d.d.d.d.d.d.d.d.d.d.d.d.d.d.d.d.p.<.m - - - - .     6 N S S S S S S S C x 6 3 ;   * s p w ",
"& & @ ; 4 n $.0.d.3.l - < c ....t.d.d.d.d.d.d.d.d.d.d.d.d.d.d.d.d.d.d.s.y.<.m . .       3 b C S S S S S S S N x 6 1 ;   * s p 8 ",
"7 o = < g B 2.u.i.r.Z Z Z &.i.i.d.d.d.d.d.d.d.d.d.d.d.d.d.d.d.d.d.d.s.s.s.p.3.C C N b x b S S S S S S S S S N j 6 3 ;   # w w 7 ",
"$ o ; 3 g N 7.i.d.p.u.u.r.i.d.d.d.d.d.d.d.d.d.d.d.d.d.d.d.d.d.d.d.d.s.s.s.s.p.r.y.9.=.H H H S S S S S S S C n g 4 ; ;   @ 7 q q ",
"0 o ; 3 g V 7.u.d.d.d.d.d.d.d.d.d.d.d.d.d.d.d.d.d.d.d.d.d.d.d.d.d.d.d.d.s.d.d.d.d.d.3.o.Y H S S S S Z S Z B h 4 3 ; .   @ 8 8 8 ",
"7 o = 1 g N w.f.d.d.d.d.d.d.d.d.d.d.d.d.d.d.d.d.d.d.d.d.d.d.d.d.d.d.d.d.s.s.d.d.d.s.3.o.Y S S S S S S S Z b 4 3 1 -   X & 8 7 w ",
"q $ o - 4 A w.u.d.d.d.d.d.d.d.d.d.d.d.d.d.d.d.d.d.d.d.d.d.d.d.d.d.d.d.d.s.s.s.i.p.p.3.@.H H S S S S Z Z B x 4 1 : .   @ q q 0 0 ",
"q 0 # ; 4 B =.r.d.d.d.d.d.d.d.d.d.d.d.d.d.d.d.d.d.d.d.d.d.d.d.d.d.d.d.d.s.s.s.y.q.q.<.@.H S S S S S Z B k 4 1 ; .     # 7 q q 0 ",
"q q * - g x C 5.d.d.d.d.d.d.d.d.d.d.d.d.d.d.d.d.d.d.d.d.s.s.s.s.d.d.d.d.d.d.s.y.<.H H H H S S S K Z M z 4 3 ; .   X X $ q q q q ",
"q 8 & = ; 4 b ,.p.d.d.d.d.d.d.d.d.d.d.d.d.d.d.d.d.d.d.d.d.s.s.p.d.d.d.d.d.p.p.6.H v h b H S S S Z C z 4 4 ; . . X $ 7 7 q q q q ",
"q q 8 # = 4 c N G ..p.d.d.d.d.d.d.d.d.d.d.d.d.d.d.d.d.d.d.d.d.d.d.d.d.d.i.6.3.<.H g - v S S S S B z 2 3 ; .   X $ q q q q q q 7 ",
"q q q & = 4 g h k N ..t.d.d.d.d.d.d.d.d.d.d.d.d.d.d.d.d.d.d.d.d.d.d.t.5.3.*.S b x : - x S S S n h 3 2 ; .   X * 7 q q q q q q q ",
"q q q & = < < 3 g k N ,.,.5.6.i.y.f.d.u.f.d.d.f.d.d.f.f.t.u.t.8.r.8.4.o.S J v l n 4 g n Z Z m j 4 1 ; . . @ 7 q q q q w q 0 q q ",
"q q q & X o > ; 2 g k m M Z =.0.w.w.e.w.e.w.w.w.w.w.0.e.0.7.%.Y H H H J g 1 : z J z c Z Z m z 3 ; . .   # 9 w q q w e e w q 0 q ",
"q q q q 7 & X . = 2 4 4 z N Z Z Y Y I I Y T Y T I I I I P H C j g g g 6 : - ; 6 l l m Z M 4 - = .     X 8 q q q q w f f e w q q ",
"q 8 8 8 q q 7 @ = = = ; g c B B b b b b b b b b b b b m m m v ;   . 6 b m m m m B n x h 4 .         X & q q q q q e f d e w q q ",
"q q q q q q 8 $ & $   . < 4 6 4 6 6 6 6 6 6 4 4 4 4 4 g 4 g 2 =     4 h k v j x z j 3 .     $ 7 $ $ 7 q q q q q 7 w e e w q q q ",
"q q q 8 q q 8 0 8 q r r 9 % % % . . . . . . . . . = . . . . .         - - - - - - - .   X # $ q 0 q q $ q q q q 0 q 7 q 7 0 q q ",
"q q q 0 q 0 8 0 q p ~ ^ y r q 8 # X X X X X @ X @ X X X X X X X X X o X X @ X @ @ X X X # 0 q q 0 q 0 q q q w w w 0 q q q q q q ",
"q q q q q q q q q a ( ( f t q q 7 7 7 7 7 7 7 & 8 8 7 7 7 7 7 7 7 7 7 8 8 8 8 8 7 7 7 7 0 q q q 0 q q q q q w q q 0 0 0 w q q q ",
"q q 0 q q q q 8 q y a a y q q q q q q q q q q q q q q q q q q q 8 q q q q q q q q q q q q q q q q q q q q q q q q q q w w w 0 0 ",
"q q 8 q q q 8 0 q q 8 0 q q q q q q q 0 q q q q q q 0 q q q q q q q q q q q q q 0 q q q 8 0 q 8 q q q q q q q q q q 0 w e e w q ",
"q q q q q q 0 0 q q 0 0 q q q q q q 0 0 q q 7 q q q q q 7 q 0 q q q q q q q q q q q q 0 q q q 8 q q q q q q q q q q 0 e R R y w ",
"q q q q q q 0 0 q q 8 q q q q q 0 7 0 7 q q q q 7 q q q q q q q q q q q q q q q 0 q q q q q 0 8 q q q q q q 0 q q q q e s s e w ",
"q q 0 0 q q q 0 q q q q q q 0 0 7 w 7 w q q q 7 q q q q q q q q q q q q q q q q q q q q q q 7 q q q q q q q q q q q q w e e w 0 ",
"q q q 8 q q 0 0 q q q q q q q y d s w 0 q q q q q q q q q 7 q q q q q q q q q q 0 q 0 q q q 8 q q q q 0 0 q 0 q q q q q 0 w 0 0 ",
"q q q q q q q q q q q q q q t a _ ( d q 0 q q q q 0 q 0 q q q q q 7 7 q q q q q q q q q q q 0 q 0 q q q q q q q q q q q q w 0 0 ",
"q q q q q q q q q q q q q q t E ] ` f q 7 0 0 q q q q q q q q q q q q q q q q q 0 q q q q q q q q q q 0 0 q q q 0 q q q q 0 0 0 "
};
