/* XPM */
static char *a497d4d53735476ad1ef0077c6ef662cAUXpGdbKnrIyWruB[] = {
/* columns rows colors chars-per-pixel */
"64 64 13 1 ",
"  c #181328",
". c #C0CBDC",
"X c #3A4466",
"o c #0C2535",
"O c #262B44",
"+ c #529550",
"@ c #1C4348",
"# c #346467",
"$ c #51534D",
"% c #FFF5E4",
"& c #8B9BB4",
"* c #96E69B",
"= c #5A6988",
/* pixels */
"                                                                ",
"   .         X              oooo            O                   ",
"   oooo          ooooo    ooooooooo                             ",
"   oooooo        ooooo   oooooooooooo      oooo                 ",
"   ooo+oo        ooooooooooooooooooooo    oooooo     oooo       ",
"   oooooo       ooooooooooooo@@@@@oooooooooooooo@oo  oooooo     ",
"     ooo   ooooooooooooooooo@@@@@@oooo@@#@#@@@@@oo@@@@ooooo     ",
"           ooooooooooooooo@@@@@@@@$@@@@@@@@@@@@@$@@@@@ooooo     ",
"            ooooooooooo@@@@@@@@@@@@@@@@@@@@@@@@@@@@@@oooooooo   ",
"    oo     ooooooooooooo@@@@@@@@@@@@@@@@@@@@@@@@@@@@@oooooooo   ",
"    oo   + ooo#oooooooooo@@@@@@@@@@@@@@@@@@@@@@@@@@$@@@@@oooo   ",
"          oooo#oooooooooo@@@@@@@@@@@@@@@@@@@@@@@@@@@$$@@oooo    ",
"      oo ooooooooo@oooooo@@@@@@@@@@@@@@@%@@@@@@@@@@@@@@@oo o    ",
"     ooooooooooo@####ooooo@@@@@@@@@@@@@@@@@@@@@@@@@@@$@ooo  O   ",
" &   oooooooooo@@######ooo@o@@@@@@@#@@@@@@@@@@@@@@@@@@@oooooo   ",
"     oooooooooo########@oo@@@@@@@@@@@@@@@@@@@@@@@@@@@@ooooooo   ",
"   X  ooo@oooo########+@@@@@@@@##@@@o@@@@@@@@@@@@@@@@@ooooooo   ",
"      oo###ooo########+*@@@@@@@###@ooo@@@$$@@@@@@@@@@oooooooo   ",
"       @####@@+##+#####++**+##@###@@#@o@@o@@@@@@@@$@  oooooo    ",
"     oo@######*##*#############++#@@@@@@@@o@@@@@@oo   oooooo    ",
"    ooo@@########*################@@@@#@@@o@@@@@oo        oo    ",
"    ooo@@########%%########+######@@@@@oooo@@@@@@oo             ",
"    ooo@########%%%%%%++##+++*+#@@#@@##ooooo@@@@@oo &           ",
"    ooo@@#######%%%%%%%***+++++@@@@@@@@o@oooo@@@@ooo      O     ",
" oooooo@@######+%%%%%%%%***++++##@@@@@@@@ooooo@@oooo          oo",
"oooooo@@#####+%%%%%%%%%%****+++*###@@@@ooooooo@@@@@@  oo  oooooo",
"oo@ooo@@#####***%%%%*******++++***++#$@oooooo@@@@@o@oooooooooooo",
"ooooooo@@#####+******###++++##****%+#@@@ooooo@@@@@o#oooooooooo  ",
"oooooooo@######***++##@@@####****%%%#@@@@@ooo@@@@@@#oooooooooo  ",
"oooooooo@#@+++****+#@o@@@$$#***%%%%%$@@@@@ooo@@@@o@@$ooooooooo  ",
" oooooooooo++****+#@@oooo@#***%%%%%+$@@@ooooo@@@$$$@@@$$ o@@o   ",
"  ooooooo@@++***$$oooooo@++***%%%%+#$@@$ooooooo$$$$@@@@o        ",
" oooooooo@#++++$$@ooooo@+++***%%%%+$$@@@@@@oo@@$$$$$@@@         ",
"  oooooo@@###+++oooooo@@++****%%%++$@@@@@@@$$$$$$$$$$$@         ",
"  oooooo@####+++oo+ooo@@++*****%%+$$@@@@@$$$$$$$$$$$@@o   #     ",
"    oooo@###++++oooooo@#++*****%++$@@@o@@$$$$$$####@oo          ",
"    oooo@#####++ooo@ooo#++*****+@@@@@ooo$$$$$#++###@oo@  oo  =  ",
"  oooooo@#####+$oooooooo++****@@@@@#oooo$$$$#########ooooooo    ",
"  ooooooo#####+@oooooooo#+****@@@@@@ooooo$$#########ooooooooo   ",
"  ooooo@####+#+@oooooooo##***%@@@@@@@o@@@$$#####+#+#ooooooooo   ",
"  ooooo@###*++@@ooooooooo##++%@@@@@@@@@@@o$#####@o@#oooooooooo  ",
"  ooooo@###+++@@@@@@oo+oo@##+#$@@@@@@@@@@o@$###oooooooo@oooooo  ",
"  oooo@@####*++@@@@@ooooo@$###$@@@$$$$$@@o@####oooooo$oooooooo  ",
"  oooo@@@###++#oooo@ooooo$###+@@@$$$$$++@@o###+oooooooooooooo   ",
"  oooo@@@@ooooooooooooooo$###+@@$$$$+++++@@#####oo oooooooooo   ",
"  ooooooooo oo     oooooo$####@@$$$++++**@@@#####    oooooooo   ",
"   oo  oo      ooooooooo$$###@@@$$$+++****@**####   ooooooooo   ",
"               oooo@oooo$$##@@@@@$$$+***##**+####o  ooooooooo   ",
"                oooooooo$$$$$$@@@@$$+++####+#####ooooooooooooo  ",
"         @ o   ooooo*oooo$$$$##@@@$+++###########ooooooooooooo  ",
"              oooooooooooo@$$$$@@@$$++##########oo oooooooooo   ",
"     @       ooooooooooooooo$$@@@@$$$+#######@ooo   oooooooo    ",
"             oooooooooooooooo@@@@@$+++#######oooo ooooooooo     ",
"             oooooooooooooooo@@@@$$+++######oooo  ooooooooo     ",
"      @    &    ooooooooooo@@oo@@$##+@oo@@oooooo  ooooooo       ",
"                 oooooo@oo@@@@@@$$$@@oooooooooooo oooooo        ",
"                 ooooo@@@@@@@@$##$ooooooooooooooo   oooo    O   ",
"         ooo     oooo@@@@@@@@@o@ooooooooo#ooo#ooo   ooo         ",
"         ooo       oo@@oo@@@@@ooooooooo oooooooo                ",
"                   ooooooo@ooooooooooo    o$ooo              =  ",
"                   oooooooooooooooo        oooo                 ",
"                   ooooo  ooooooooo                             ",
"                 o           ooooo                  o           ",
"                &o                                              "
};
